<svg width="330" height="494" viewBox="0 0 330 494" fill="none" xmlns="http://www.w3.org/2000/svg">
<path d="M80.3437 466.681C80.3437 476.21 76.9117 467.595 76.9117 477.124C139.831 495.502 218.77 497.002 268.201 478.002C268.713 467.252 267.273 427.286 268.201 416.555C270.004 395.688 264.138 380.103 254.788 362.122C244.617 342.562 237.851 325.222 237.851 302.403V228.876C237.851 220.075 232.291 184.815 236.187 176.698C242.584 160.152 246.912 137.127 290.842 117.908C295.418 114.094 311.434 113.332 317.154 83.5879C323.238 51.9523 327.45 50.4114 327.45 46.9794L298.85 43.5474C290.842 58.4194 290.842 62.9954 259.954 74.4354C235.244 82.6722 234.501 113.502 218.77 117.908C196.185 127.975 188.102 113.052 186.883 104.331C177.947 94.1126 191.424 66.8561 187.885 52.6995C183.309 34.3953 187.885 21.8113 187.885 4.65129L169.578 2.36328C163.857 27.5313 153.338 33.2513 148.991 40.1154C135.232 61.8405 140.975 86.2569 139.831 105.324C137.695 133.581 113.776 119.385 102.083 108.755C83 92.002 73.4827 82.4434 70.0507 62.9953C67.7902 50.1858 37.256 48.1233 27.7227 41.2593L3.47656 54.322C18.1607 69.0062 36.1797 74.6201 36.9587 98.7691C37.5218 116.227 54.2968 128.838 64.7626 141.65C73.4591 152.295 70.4408 167.042 70.4408 180.027C70.4408 196.114 86.0414 226.89 85.5176 242.604C84.6675 268.108 80.3437 289.508 89.4957 313.532C89.4957 340.988 85.5176 338.254 85.5176 354.716C85.5176 373.646 86.0494 385.03 85.5176 403.908C85.2211 414.434 85.5176 423 85.5176 433.652C78.0557 451.956 80.3437 460.089 80.3437 466.681Z" fill="url(#paint0_linear_381_108)" stroke="black" stroke-width="4"/>
<defs>
<linearGradient id="paint0_linear_381_108" x1="327.45" y1="246.979" x2="3.47656" y2="246.979" gradientUnits="userSpaceOnUse">
<stop offset="0.328149" stop-color="#906121"/>
<stop offset="1" stop-color="#F5F5F5"/>
</linearGradient>
</defs>
</svg>
