<svg width="1128" height="277" viewBox="0 0 1128 277" fill="none" xmlns="http://www.w3.org/2000/svg">
<path d="M36.168 184.958C13.9727 184.958 -4.1636 221.69 -27.7148 221.69L45.5 274L559 260L545.43 155.111C547.282 151.408 515.008 155.111 504.957 155.111C490.06 155.111 491.899 150.514 483.638 140.187C479.391 134.879 469.083 139.822 463.266 136.16C458.673 133.268 450.264 124.539 447.158 120.052C434.193 101.324 415.329 116.348 399.308 102.997C385.96 91.8734 396.681 86.8887 373.014 86.8887C356.118 86.8887 345.809 80.966 334.639 67.7013C319.852 50.1412 330.667 26.4276 316.399 7.77015C305.357 -6.66969 282.7 10.9396 276.603 22.4568C271.313 32.4487 274.548 36.7211 262.864 40.4598C247.912 45.2445 230.633 53.5936 219.988 65.5693C205.205 82.2009 197.879 99.0902 179.008 114.367C151.888 136.321 165.116 172.166 120.261 172.166C101.642 172.166 94.7124 189.222 76.6748 189.222C62.7837 189.222 49.8938 184.958 36.168 184.958Z" fill="url(#paint0_linear_381_66)" stroke="black" stroke-width="4" stroke-linecap="round"/>
<path d="M1003.83 93.5215C1003.83 124.648 1002.33 135.317 977.863 155.338L1016.5 227L1123.15 153.05C1111.93 147.44 1109.08 129.001 1097.87 125.264C1081.27 119.73 1044.22 127.466 1042.21 103.944C1040.68 86.1008 1003.83 78.3808 1003.83 93.5215Z" fill="url(#paint1_linear_381_66)" stroke="black" stroke-width="4" stroke-linecap="round"/>
<defs>
<linearGradient id="paint0_linear_381_66" x1="-27.7148" y1="138.166" x2="559" y2="138.166" gradientUnits="userSpaceOnUse">
<stop stop-color="#79AF39"/>
<stop offset="0.836" stop-color="#267E07"/>
</linearGradient>
<linearGradient id="paint1_linear_381_66" x1="977.863" y1="156.229" x2="1123.15" y2="156.229" gradientUnits="userSpaceOnUse">
<stop offset="0.0409998" stop-color="#79AF39"/>
<stop offset="0.701" stop-color="#267E07"/>
</linearGradient>
</defs>
</svg>
