<svg width="1256" height="115" viewBox="0 0 1256 115" fill="none" xmlns="http://www.w3.org/2000/svg">
<path class="grass" d="M494.147 38.4874C491.258 31.9873 493.715 24.4941 496.623 18.6777" stroke="black" stroke-width="3" stroke-linecap="round"/>
<path class="grass" d="M503.27 34.153C504.058 29.424 504.161 23.3698 508.222 20.1211" stroke="black" stroke-width="3" stroke-linecap="round"/>
<path class="grass" d="M512.422 31.6768C513.82 27.3277 517.301 23.8031 519.851 20.1211" stroke="black" stroke-width="3" stroke-linecap="round"/>
<path class="grass" d="M528.434 32.1259L533.386 24.6973" stroke="black" stroke-width="3" stroke-linecap="round"/>
<path class="grass" d="M539.875 35.2404C541.754 32.2346 544.217 29.7 546.478 26.9863" stroke="black" stroke-width="3" stroke-linecap="round"/>
<path class="grass" d="M964.444 42.2179C961.555 35.7178 964.012 28.2245 966.92 22.4082" stroke="black" stroke-width="3" stroke-linecap="round"/>
<path class="grass" d="M973.566 37.8834C974.355 33.1545 974.458 27.1002 978.519 23.8516" stroke="black" stroke-width="3" stroke-linecap="round"/>
<path class="grass" d="M982.719 35.4072C984.117 31.0582 987.598 27.5335 990.147 23.8516" stroke="black" stroke-width="3" stroke-linecap="round"/>
<path class="grass" d="M998.73 35.8564L1003.68 28.4277" stroke="black" stroke-width="3" stroke-linecap="round"/>
<path class="grass" d="M1010.17 38.9708C1012.05 35.9651 1014.51 33.4305 1016.78 30.7168" stroke="black" stroke-width="3" stroke-linecap="round"/>
<path class="grass" d="M647.41 105.75C650.676 107.287 651.521 109.812 652.363 113.179" stroke="black" stroke-width="3" stroke-linecap="round"/>
<path class="grass" d="M662.539 100.201V110.931" stroke="black" stroke-width="3" stroke-linecap="round"/>
<path class="grass" d="M669.406 110.106C670.092 107.664 670.649 101.163 673.533 100.201" stroke="black" stroke-width="3" stroke-linecap="round"/>
<path class="grass" d="M1191.95 14.1895C1199.01 14.461 1202.58 17.1715 1206.09 23.0269" stroke="black" stroke-width="3" stroke-linecap="round"/>
<path class="grass" d="M1206.09 7.11914C1210.7 9.54774 1213.43 12.0423 1216.69 15.9566" stroke="black" stroke-width="3" stroke-linecap="round"/>
<path class="grass" d="M1225.53 3.58398C1224.74 7.73325 1224.23 11.7789 1223.77 15.9565" stroke="black" stroke-width="3" stroke-linecap="round"/>
<path class="grass" d="M1234.37 3.58398C1234.37 7.07518 1232.72 14.2472 1236.14 15.9565" stroke="black" stroke-width="3" stroke-linecap="round"/>
<path class="grass" d="M1253.81 1.81641C1250.46 6.89244 1246.46 11.7997 1244.98 17.7239" stroke="black" stroke-width="3" stroke-linecap="round"/>
<path class="grass" d="M1.50781 93.0059C8.00497 96.6154 12.4184 101.604 13.8803 108.913" stroke="black" stroke-width="3" stroke-linecap="round"/>
<path class="grass" d="M17.4141 87.7031C20.2564 90.4643 29.1462 95.8065 29.7865 100.076C29.9613 101.241 29.7865 103.611 29.7865 103.611" stroke="black" stroke-width="3" stroke-linecap="round"/>
<path class="grass" d="M36.8599 82.4004C36.8599 89.1884 35.7421 93.655 40.3949 98.3079" stroke="black" stroke-width="3" stroke-linecap="round"/>
<path class="grass" d="M59.8376 80.6328C56.8714 85.8674 56.0656 90.8012 54.5352 96.5403" stroke="black" stroke-width="3" stroke-linecap="round"/>
<path class="grass" d="M96.957 24.0742C103.486 24.8423 105.795 30.7225 105.795 36.4467" stroke="black" stroke-width="3" stroke-linecap="round"/>
<path class="grass" d="M112.863 18.7715C112.863 22.2627 111.212 29.4347 114.631 31.144" stroke="black" stroke-width="3" stroke-linecap="round"/>
<path class="grass" d="M127.002 13.4688C125.213 18.2991 123.099 22.7107 121.699 27.6087" stroke="black" stroke-width="3" stroke-linecap="round"/>
</svg>
