<svg width="1728" height="201" viewBox="0 0 1728 201" fill="none" xmlns="http://www.w3.org/2000/svg">
<path d="M156.978 72.5407C138.449 72.5407 -12.0115 78.0493 -28.8594 85.9777L6 230.999L1728 260.5V19.2422C1714.83 24.79 1674.1 32.1305 1616.5 17.1103C1534.25 -4.36716 1542.5 1.49936 1496 7.99946C1496 7.99946 1466 7.99946 1446.5 26.4993C1427 44.9991 1373.17 16.8667 1360 23.0576L1201.5 33.9994L1176.92 23.0576C1162.99 23.0576 1141.85 26.0372 1129.61 19.2422C1117.94 12.758 1098.56 3.92691 1084.84 4.31868C1068.8 4.77722 1054.11 17.1103 1035.81 17.1103H961.192C934.207 17.1103 910.295 10.1169 883.494 18.0578C846.384 29.0536 816.271 17.1103 777.845 17.1103H706.544C677.811 17.1103 650.013 27.1136 621.977 25.638C600.544 24.51 580.624 17.1103 558.019 17.1103C520.294 17.1103 483.653 29.9019 445.263 29.9019C407.009 29.9019 379.487 39.7131 342.93 48.8525C310.447 56.9732 275.065 53.8118 242.018 60.6966C212.038 66.9424 187.703 72.5407 156.978 72.5407Z" fill="url(#paint0_linear_381_70)" stroke="black" stroke-width="4" stroke-linecap="round"/>
<defs>
<linearGradient id="paint0_linear_381_70" x1="-28.8594" y1="131.263" x2="1728" y2="131.263" gradientUnits="userSpaceOnUse">
<stop stop-color="#7CB13B"/>
<stop offset="1" stop-color="#267E07"/>
</linearGradient>
</defs>
</svg>
