<svg width="597" height="293" viewBox="0 0 597 293" fill="none" xmlns="http://www.w3.org/2000/svg">
<path d="M5.99 53.806C3.734 53.806 2.23 53.4927 1.478 52.866C0.726 52.2393 0.726 51.644 1.478 51.08C2.23 50.4533 3.734 50.14 5.99 50.14C4.23533 50.14 2.91933 49.7327 2.042 48.918C1.16467 48.1033 0.726 47.1947 0.726 46.192C0.726 45.1267 1.16467 44.218 2.042 43.466C2.91933 42.6513 4.23533 42.244 5.99 42.244C4.298 42.244 3.04467 41.8993 2.23 41.21C1.41533 40.5207 1.008 39.7373 1.008 38.86C1.008 37.9827 1.41533 37.1993 2.23 36.51C3.04467 35.8207 4.298 35.476 5.99 35.476C4.486 35.476 3.32667 35.006 2.512 34.066C1.76 33.126 1.384 32.0293 1.384 30.776C1.384 29.5227 1.76 28.426 2.512 27.486C3.32667 26.546 4.486 26.076 5.99 26.076C3.79667 26.076 2.324 25.6373 1.572 24.76C0.82 23.8827 0.82 23.0053 1.572 22.128C2.324 21.2507 3.79667 20.812 5.99 20.812C4.11 20.812 2.7 20.436 1.76 19.684C0.882667 18.8693 0.444 17.9607 0.444 16.958C0.444 15.8927 0.882667 14.984 1.76 14.232C2.7 13.4173 4.11 13.01 5.99 13.01C4.92467 12.5087 4.298 11.7567 4.11 10.754C3.922 9.68866 4.04733 8.65466 4.486 7.652C4.98733 6.58666 5.67667 5.772 6.554 5.208C7.43133 4.644 8.40267 4.58133 9.468 5.02C9.468 3.516 9.938 2.41933 10.878 1.73C11.818 0.977998 12.9147 0.601999 14.168 0.601999C15.4213 0.601999 16.518 0.977998 17.458 1.73C18.398 2.41933 18.868 3.516 18.868 5.02C19.5573 4.08 20.3407 3.57866 21.218 3.516C22.0953 3.39066 22.8787 3.57866 23.568 4.08C24.2573 4.58133 24.696 5.27066 24.884 6.148C25.1347 7.02533 24.9153 7.934 24.226 8.874C25.8553 8.874 27.0773 9.438 27.892 10.566C28.7693 11.6313 29.208 12.8847 29.208 14.326C29.208 15.7047 28.7693 16.958 27.892 18.086C27.0773 19.1513 25.8553 19.684 24.226 19.684C25.7927 19.684 26.952 20.2167 27.704 21.282C28.5187 22.3473 28.926 23.5693 28.926 24.948C28.926 26.3267 28.5187 27.5487 27.704 28.614C26.952 29.6793 25.7927 30.212 24.226 30.212C26.3567 30.212 27.7667 30.5253 28.456 31.152C29.1453 31.7787 29.1453 32.4053 28.456 33.032C27.7667 33.6587 26.3567 33.972 24.226 33.972C26.3567 33.972 27.8293 34.3793 28.644 35.194C29.4587 36.0087 29.584 36.886 29.02 37.826C28.5187 38.7033 27.3593 39.2673 25.542 39.518C27.234 39.5807 28.5187 40.364 29.396 41.868C30.336 43.372 30.7433 44.9073 30.618 46.474C31.8713 46.1607 33.156 46.1293 34.472 46.38C35.788 46.6307 36.8847 47.1947 37.762 48.072C38.702 48.9493 39.172 50.1087 39.172 51.55C39.172 50.1713 39.6107 49.0747 40.488 48.26C41.428 47.4453 42.5247 46.9127 43.778 46.662C45.094 46.4113 46.41 46.4113 47.726 46.662C49.042 46.9127 50.1387 47.4453 51.016 48.26C51.8933 49.0747 52.332 50.1713 52.332 51.55C53.9613 51.4247 55.2147 51.6753 56.092 52.302C56.9693 52.9287 57.4393 53.712 57.502 54.652C57.5647 55.5293 57.1887 56.344 56.374 57.096C55.622 57.848 54.4313 58.2553 52.802 58.318C53.8047 59.258 54.2433 60.292 54.118 61.42C54.0553 62.548 53.6167 63.582 52.802 64.522C51.9873 65.3993 51.016 65.9633 49.888 66.214C48.76 66.402 47.6947 66.0573 46.692 65.18C46.692 66.684 46.1593 67.7807 45.094 68.47C44.0287 69.222 42.8067 69.598 41.428 69.598C40.0493 69.598 38.8273 69.222 37.762 68.47C36.6967 67.7807 36.164 66.684 36.164 65.18C36.164 66.7467 35.5687 67.9373 34.378 68.752C33.25 69.5667 31.9027 69.974 30.336 69.974C28.7693 69.974 27.3907 69.5667 26.2 68.752C25.072 67.9373 24.508 66.7467 24.508 65.18C24.508 66.7467 23.944 67.9373 22.816 68.752C21.688 69.5667 20.372 69.974 18.868 69.974C17.364 69.974 16.048 69.5667 14.92 68.752C13.792 67.9373 13.228 66.7467 13.228 65.18C13.228 67.06 12.852 68.376 12.1 69.128C11.348 69.9427 10.4707 70.0053 9.468 69.316C8.528 68.6267 7.682 67.06 6.93 64.616C6.24067 62.1093 5.92733 58.506 5.99 53.806ZM81.0938 66.308C80.7178 67.624 80.0285 68.47 79.0258 68.846C78.0231 69.2847 76.9578 69.3473 75.8298 69.034C74.7645 68.7833 73.8871 68.2193 73.1978 67.342C72.5085 66.4647 72.3518 65.368 72.7278 64.052C72.0385 64.992 71.2238 65.5247 70.2838 65.65C69.3438 65.7127 68.4665 65.462 67.6518 64.898C66.8998 64.334 66.3985 63.6133 66.1478 62.736C65.9598 61.796 66.2418 60.8247 66.9938 59.822C66.0538 60.2607 65.1138 60.0727 64.1738 59.258C63.2338 58.3807 62.4505 57.2527 61.8238 55.874C61.1971 54.4327 60.8838 53.0853 60.8838 51.832C60.8838 50.5787 61.3538 49.7327 62.2938 49.294C61.1658 49.294 60.3198 48.7613 59.7558 47.696C59.1918 46.6307 58.9098 45.3773 58.9098 43.936C58.9098 42.4947 59.1918 41.2413 59.7558 40.176C60.3198 39.1107 61.1345 38.578 62.1998 38.578C60.5078 38.0767 59.5051 37.3247 59.1918 36.322C58.8785 35.3193 59.0978 34.4733 59.8498 33.784C60.6645 33.0947 61.9178 33.0007 63.6098 33.502C63.0458 33.0007 62.8578 32.28 63.0458 31.34C63.2965 30.3373 63.7978 29.3033 64.5498 28.238C65.3018 27.1727 66.1478 26.2327 67.0878 25.418C68.0278 24.5407 68.9365 23.914 69.8138 23.538C70.7538 23.162 71.5058 23.2247 72.0698 23.726C71.7565 22.6607 72.0385 21.7207 72.9158 20.906C73.8558 20.0913 75.0151 19.496 76.3938 19.12C77.7725 18.6813 79.0571 18.5873 80.2478 18.838C81.4385 19.026 82.1905 19.6527 82.5038 20.718C82.5665 19.5273 83.2558 18.7127 84.5718 18.274C85.9505 17.7727 87.4545 17.5847 89.0838 17.71C90.7758 17.8353 92.2485 18.2427 93.5018 18.932C94.7551 19.6213 95.3191 20.5613 95.1938 21.752C95.6951 20.5613 96.3845 19.9347 97.2618 19.872C98.2018 19.7467 98.9538 20.0287 99.5178 20.718C100.144 21.4073 100.238 22.3473 99.7998 23.538C100.489 22.8487 101.398 22.7547 102.526 23.256C103.716 23.6947 104.844 24.4467 105.91 25.512C107.038 26.5773 107.821 27.7053 108.26 28.896C108.761 30.0867 108.667 31.0267 107.978 31.716C108.918 31.528 109.764 31.8413 110.516 32.656C111.33 33.4707 111.957 34.536 112.396 35.852C112.897 37.168 113.179 38.5467 113.242 39.988C113.304 41.3667 113.148 42.5887 112.772 43.654C112.396 44.7193 111.706 45.346 110.704 45.534C112.521 46.3487 113.336 46.9753 113.148 47.414C112.96 47.79 111.957 47.5707 110.14 46.756C110.14 47.5707 109.607 48.1973 108.542 48.636C107.539 49.012 106.38 49.2 105.064 49.2C103.748 49.2 102.557 49.012 101.492 48.636C100.489 48.1973 99.9878 47.5707 99.9878 46.756C99.9878 47.8213 99.5178 48.636 98.5778 49.2C97.6378 49.7013 96.5411 49.9833 95.2878 50.046C94.0971 50.046 93.0318 49.7953 92.0918 49.294C91.1518 48.73 90.6818 47.9467 90.6818 46.944C90.7445 48.0093 90.2118 48.8867 89.0838 49.576C88.0185 50.2027 86.7965 50.5787 85.4178 50.704C86.0445 51.456 86.5458 52.2707 86.9218 53.148C87.3605 53.9627 87.6425 54.7147 87.7678 55.404C88.3945 54.7147 89.3345 54.1193 90.5878 53.618C91.8411 53.1167 93.1258 52.8033 94.4418 52.678C95.7578 52.5527 96.9171 52.6467 97.9198 52.96C98.9851 53.2107 99.6118 53.7747 99.7998 54.652C99.7998 53.5867 100.207 52.772 101.022 52.208C101.899 51.644 102.902 51.362 104.03 51.362C105.158 51.362 106.129 51.644 106.944 52.208C107.821 52.772 108.26 53.5867 108.26 54.652C109.513 54.9027 110.265 55.4353 110.516 56.25C110.766 57.002 110.61 57.6913 110.046 58.318C109.482 58.882 108.604 59.0387 107.414 58.788C107.978 59.6027 108.072 60.4487 107.696 61.326C107.32 62.1407 106.693 62.8613 105.816 63.488C105.001 64.052 104.124 64.3653 103.184 64.428C102.306 64.4907 101.586 64.146 101.022 63.394C101.398 64.5847 101.21 65.6187 100.458 66.496C99.7685 67.3733 98.8285 68 97.6378 68.376C96.4471 68.752 95.2878 68.752 94.1598 68.376C93.0945 68.0627 92.3738 67.3107 91.9978 66.12C92.1231 67.812 91.6531 68.9713 90.5878 69.598C89.5851 70.2247 88.2065 70.256 86.4518 69.692C84.7598 69.1907 82.9738 68.0627 81.0938 66.308ZM84.9478 39.706C84.9478 38.4527 85.2925 37.7633 85.9818 37.638C86.6711 37.45 87.1411 37.826 87.3918 38.766C87.5798 38.202 87.9558 37.6693 88.5198 37.168C89.0838 36.6667 89.6791 36.322 90.3058 36.134C89.5538 35.57 88.9271 34.7553 88.4258 33.69C87.9245 32.6247 87.7678 31.6847 87.9558 30.87C87.3918 31.1833 86.7025 31.3713 85.8878 31.434C85.1358 31.4967 84.4778 31.4027 83.9138 31.152C84.1018 31.8413 84.0705 32.656 83.8198 33.596C83.5691 34.536 83.1618 35.382 82.5978 36.134C82.0965 36.886 81.5011 37.2933 80.8118 37.356C81.6265 37.544 82.2218 37.9827 82.5978 38.672C83.0365 39.3613 83.8198 39.706 84.9478 39.706ZM134.678 65.838C134.302 67.53 133.738 68.564 132.986 68.94C132.234 69.316 131.608 69.1593 131.106 68.47C130.668 67.7807 130.636 66.6213 131.012 64.992C130.574 65.932 129.853 66.4647 128.85 66.59C127.848 66.6527 126.845 66.4647 125.842 66.026C124.902 65.5247 124.15 64.8667 123.586 64.052C123.085 63.1747 123.054 62.2347 123.492 61.232C122.49 60.9187 121.832 60.386 121.518 59.634C121.268 58.8193 121.268 58.036 121.518 57.284C121.832 56.4693 122.333 55.8427 123.022 55.404C123.774 54.9653 124.652 54.934 125.654 55.31C125.654 54.37 126.03 53.6807 126.782 53.242C127.534 52.7407 128.38 52.49 129.32 52.49C130.323 52.49 131.2 52.7407 131.952 53.242C132.704 53.6807 133.08 54.37 133.08 55.31C133.268 54.37 133.926 53.712 135.054 53.336C136.182 52.96 137.498 52.8347 139.002 52.96C140.506 53.0853 141.854 53.43 143.044 53.994C143.107 53.5553 143.295 53.2107 143.608 52.96C143.295 52.396 143.295 51.7067 143.608 50.892C142.919 51.456 141.916 51.738 140.6 51.738C139.284 51.738 137.937 51.5187 136.558 51.08C135.242 50.6413 134.177 50.046 133.362 49.294C132.548 48.542 132.234 47.7273 132.422 46.85C131.984 48.1033 131.357 48.824 130.542 49.012C129.728 49.2 129.07 48.9807 128.568 48.354C128.067 47.6647 128.036 46.662 128.474 45.346C127.785 45.8473 126.97 45.8473 126.03 45.346C125.153 44.782 124.244 43.9673 123.304 42.902C122.427 41.8367 121.675 40.6773 121.048 39.424C120.422 38.1707 120.046 37.0113 119.92 35.946C119.795 34.8807 120.077 34.1287 120.766 33.69C120.077 33.314 119.764 32.6247 119.826 31.622C119.952 30.6193 120.296 29.5853 120.86 28.52C121.487 27.4547 122.176 26.6087 122.928 25.982C123.743 25.3553 124.495 25.23 125.184 25.606C124.558 24.5407 124.495 23.6007 124.996 22.786C125.56 21.9713 126.312 21.5327 127.252 21.47C128.192 21.3447 129.007 21.8147 129.696 22.88C129.508 21.8773 129.79 21 130.542 20.248C131.357 19.496 132.391 18.9007 133.644 18.462C134.898 18.0233 136.182 17.804 137.498 17.804C138.877 17.7413 140.068 17.9293 141.07 18.368C142.073 18.8067 142.668 19.5273 142.856 20.53C142.982 19.3393 143.452 18.5247 144.266 18.086C145.144 17.5847 146.052 17.3967 146.992 17.522C147.995 17.6473 148.841 18.0547 149.53 18.744C150.22 19.4333 150.47 20.342 150.282 21.47C150.658 20.2793 151.191 19.59 151.88 19.402C152.632 19.1513 153.259 19.308 153.76 19.872C154.262 20.436 154.324 21.3133 153.948 22.504C154.45 21.564 155.233 21.094 156.298 21.094C157.364 21.094 158.398 21.376 159.4 21.94C160.466 22.504 161.249 23.256 161.75 24.196C162.314 25.136 162.314 26.076 161.75 27.016C163.192 27.4547 164.006 28.144 164.194 29.084C164.445 30.024 164.194 30.8387 163.442 31.528C162.753 32.1547 161.719 32.2487 160.34 31.81C160.34 32.938 159.902 33.784 159.024 34.348C158.147 34.8493 157.144 35.1 156.016 35.1C154.888 35.1 153.886 34.8493 153.008 34.348C152.194 33.784 151.786 32.938 151.786 31.81C151.598 32.562 151.034 33.0633 150.094 33.314C149.217 33.5647 148.183 33.6273 146.992 33.502C145.802 33.314 144.674 33.0007 143.608 32.562C143.671 33.3767 143.389 34.1287 142.762 34.818C144.141 35.1313 145.426 35.6953 146.616 36.51C147.807 37.3247 148.246 38.1393 147.932 38.954C148.12 38.0767 148.653 37.4813 149.53 37.168C150.408 36.8547 151.348 36.8233 152.35 37.074C153.353 37.262 154.199 37.6693 154.888 38.296C155.578 38.9227 155.828 39.6747 155.64 40.552C156.079 40.0507 156.768 39.9567 157.708 40.27C158.711 40.5207 159.745 41.0533 160.81 41.868C161.938 42.62 162.972 43.4973 163.912 44.5C164.852 45.44 165.542 46.38 165.98 47.32C166.419 48.1973 166.419 48.8867 165.98 49.388C167.296 49.3253 168.268 49.6073 168.894 50.234C169.521 50.8607 169.834 51.5813 169.834 52.396C169.897 53.2107 169.615 53.9313 168.988 54.558C168.424 55.1847 167.516 55.5293 166.262 55.592C167.014 56.156 167.296 56.9393 167.108 57.942C166.983 58.9447 166.544 59.916 165.792 60.856C165.103 61.796 164.288 62.4853 163.348 62.924C162.471 63.3 161.625 63.206 160.81 62.642C161.312 63.77 161.343 64.7413 160.904 65.556C160.466 66.3707 159.808 66.966 158.93 67.342C158.053 67.718 157.144 67.7493 156.204 67.436C155.327 67.1227 154.669 66.4333 154.23 65.368C154.356 66.496 153.792 67.4047 152.538 68.094C151.348 68.7833 149.75 69.1907 147.744 69.316C145.739 69.4413 143.577 69.222 141.258 68.658C139.002 68.094 136.809 67.154 134.678 65.838ZM49.2388 175.052C48.7375 175.491 48.0168 175.491 47.0768 175.052C46.1368 174.613 45.1028 173.924 43.9748 172.984C42.9095 172.044 41.9381 171.01 41.0608 169.882C40.1835 168.754 39.5568 167.72 39.1808 166.78C38.8048 165.777 38.8675 165.057 39.3688 164.618C38.1155 164.806 37.0815 164.524 36.2668 163.772C35.5148 162.957 35.0448 161.986 34.8568 160.858C34.7315 159.73 34.8881 158.696 35.3268 157.756C35.8281 156.753 36.7055 156.158 37.9588 155.97C36.6428 155.907 35.6715 155.469 35.0448 154.654C34.4808 153.777 34.1988 152.837 34.1988 151.834C34.2615 150.769 34.6375 149.86 35.3268 149.108C36.0788 148.293 37.0815 147.917 38.3348 147.98C36.7681 147.541 35.7968 146.915 35.4208 146.1C35.1075 145.223 35.2955 144.533 35.9848 144.032C36.7368 143.531 37.9275 143.531 39.5568 144.032C38.5541 143.343 37.9588 142.591 37.7708 141.776C37.5828 140.961 37.6768 140.209 38.0528 139.52C38.4915 138.831 39.1181 138.392 39.9328 138.204C40.8101 138.016 41.7501 138.235 42.7528 138.862C42.3768 138.235 42.4708 137.515 43.0348 136.7C43.5988 135.823 44.4135 135.008 45.4788 134.256C46.6068 133.441 47.7975 132.783 49.0508 132.282C50.3041 131.781 51.4321 131.499 52.4348 131.436C53.4375 131.373 54.1268 131.687 54.5028 132.376C54.4401 131.436 54.8475 130.684 55.7248 130.12C56.6648 129.556 57.7615 129.243 59.0148 129.18C60.2681 129.055 61.3648 129.211 62.3048 129.65C63.3075 130.026 63.8715 130.653 63.9968 131.53C64.2475 130.214 64.9995 129.337 66.2528 128.898C67.5061 128.459 68.8535 128.397 70.2948 128.71C71.7361 129.023 72.9268 129.65 73.8668 130.59C74.8695 131.467 75.2455 132.564 74.9948 133.88C75.6841 132.94 76.6868 132.595 78.0028 132.846C79.3188 133.097 80.6035 133.692 81.8568 134.632C83.1101 135.572 84.0188 136.669 84.5828 137.922C85.2095 139.113 85.1468 140.178 84.3948 141.118C85.3348 141.181 86.0241 141.557 86.4628 142.246C86.9015 142.935 87.0895 143.719 87.0268 144.596C86.9641 145.411 86.6821 146.131 86.1808 146.758C85.6795 147.385 84.9588 147.667 84.0188 147.604C84.0188 148.419 83.6115 149.045 82.7968 149.484C81.9821 149.86 81.0108 150.048 79.8828 150.048C78.8175 150.048 77.8775 149.86 77.0628 149.484C76.2481 149.045 75.8408 148.419 75.8408 147.604C75.5275 148.356 74.8381 148.795 73.7728 148.92C72.7701 148.983 71.6108 148.826 70.2948 148.45C68.9788 148.074 67.7255 147.573 66.5348 146.946C65.4068 146.319 64.5608 145.63 63.9968 144.878C63.8088 145.881 63.1821 146.758 62.1168 147.51C61.0515 148.199 59.9861 148.481 58.9208 148.356C59.3595 149.045 59.5475 149.891 59.4848 150.894C59.4221 151.897 59.1715 152.805 58.7328 153.62C58.2941 154.435 57.6675 154.905 56.8528 155.03C58.2315 155.03 59.2028 155.563 59.7668 156.628C60.3935 157.693 60.5501 158.759 60.2368 159.824C61.3021 159.699 62.3361 159.918 63.3388 160.482C64.3415 160.983 65.0621 161.704 65.5008 162.644C66.0648 161.641 66.9735 160.952 68.2268 160.576C69.5428 160.137 70.5768 160.451 71.3288 161.516C71.3288 160.639 71.6735 159.981 72.3628 159.542C73.1148 159.041 73.9608 158.79 74.9008 158.79C75.8408 158.79 76.6555 159.041 77.3448 159.542C78.0341 159.981 78.3788 160.639 78.3788 161.516C78.3788 160.764 78.7548 160.2 79.5068 159.824C80.3215 159.385 81.1988 159.166 82.1388 159.166C83.1415 159.166 84.0188 159.385 84.7708 159.824C85.5228 160.2 85.8988 160.764 85.8988 161.516C86.6508 161.704 87.0895 162.205 87.2148 163.02C87.4028 163.772 87.3715 164.618 87.1208 165.558C86.8701 166.498 86.4628 167.281 85.8988 167.908C85.3975 168.472 84.7708 168.629 84.0188 168.378C84.5828 169.193 84.5201 170.164 83.8308 171.292C83.1415 172.357 82.1388 173.36 80.8228 174.3C79.5695 175.24 78.3161 175.867 77.0628 176.18C75.8095 176.493 74.9008 176.274 74.3368 175.522C74.4621 176.462 73.8668 177.277 72.5508 177.966C71.2975 178.593 69.4801 178.969 67.0988 179.094C64.7175 179.219 61.9601 178.969 58.8268 178.342C55.7561 177.715 52.5601 176.619 49.2388 175.052ZM97.7494 177.214C96.1828 177.151 95.1488 176.65 94.6474 175.71C94.1461 174.707 94.1774 173.767 94.7414 172.89C95.3054 171.95 96.3708 171.511 97.9374 171.574C96.3708 171.574 95.3054 171.198 94.7414 170.446C94.2401 169.694 94.2401 168.942 94.7414 168.19C95.3054 167.438 96.3708 167.062 97.9374 167.062C96.8094 167.062 95.9321 166.623 95.3054 165.746C94.7414 164.869 94.4594 163.866 94.4594 162.738C94.4594 161.61 94.7414 160.607 95.3054 159.73C95.9321 158.853 96.8094 158.414 97.9374 158.414C96.8094 158.414 95.9321 158.132 95.3054 157.568C94.7414 156.941 94.4594 156.221 94.4594 155.406C94.4594 154.591 94.7414 153.902 95.3054 153.338C95.9321 152.711 96.8094 152.398 97.9374 152.398C97.1228 152.398 96.4648 151.928 95.9634 150.988C95.5248 150.048 95.2114 148.889 95.0234 147.51C94.8981 146.131 94.8981 144.753 95.0234 143.374C95.2114 141.995 95.5248 140.836 95.9634 139.896C96.4648 138.956 97.1228 138.486 97.9374 138.486C96.7468 138.486 95.8381 138.11 95.2114 137.358C94.5848 136.606 94.2714 135.729 94.2714 134.726C94.2714 133.723 94.5848 132.846 95.2114 132.094C95.8381 131.342 96.7468 130.966 97.9374 130.966C96.6214 130.966 95.6188 130.527 94.9294 129.65C94.3028 128.773 93.9894 127.77 93.9894 126.642C93.9894 125.514 94.3028 124.511 94.9294 123.634C95.6188 122.757 96.6214 122.318 97.9374 122.318C96.1828 122.318 94.9921 121.879 94.3654 121.002C93.8014 120.125 93.8014 119.247 94.3654 118.37C94.9921 117.493 96.1828 117.054 97.9374 117.054C97.6868 116.114 97.9061 115.299 98.5954 114.61C99.3474 113.921 100.256 113.419 101.321 113.106C102.449 112.73 103.483 112.667 104.423 112.918C105.426 113.106 106.084 113.67 106.397 114.61C106.397 113.482 106.805 112.636 107.619 112.072C108.497 111.445 109.499 111.132 110.627 111.132C111.755 111.132 112.758 111.445 113.635 112.072C114.513 112.636 114.951 113.482 114.951 114.61C115.891 114.485 116.675 114.955 117.301 116.02C117.928 117.023 118.335 118.245 118.523 119.686C118.774 121.127 118.743 122.443 118.429 123.634C118.179 124.825 117.583 125.483 116.643 125.608C118.147 125.357 119.307 125.859 120.121 127.112C120.999 128.303 121.469 129.65 121.531 131.154C122.471 130.903 123.38 130.903 124.257 131.154C125.197 131.342 125.824 131.937 126.137 132.94C126.012 131.937 126.388 131.123 127.265 130.496C128.143 129.869 129.177 129.493 130.367 129.368C131.621 129.18 132.717 129.274 133.657 129.65C134.66 130.026 135.255 130.684 135.443 131.624C135.819 130.12 136.446 129.243 137.323 128.992C138.263 128.679 139.047 128.867 139.673 129.556C140.363 130.245 140.519 131.342 140.143 132.846C140.895 132.094 141.773 131.812 142.775 132C143.841 132.188 144.812 132.689 145.689 133.504C146.567 134.256 147.131 135.133 147.381 136.136C147.695 137.139 147.507 138.047 146.817 138.862C148.071 138.486 149.105 138.58 149.919 139.144C150.797 139.708 151.392 140.523 151.705 141.588C152.081 142.653 152.081 143.687 151.705 144.69C151.392 145.63 150.609 146.319 149.355 146.758C150.546 146.695 151.455 147.291 152.081 148.544C152.708 149.735 153.021 151.145 153.021 152.774C153.084 154.341 152.833 155.751 152.269 157.004C151.705 158.195 150.828 158.79 149.637 158.79C150.703 158.79 151.486 159.354 151.987 160.482C152.489 161.547 152.739 162.801 152.739 164.242C152.739 165.683 152.489 166.968 151.987 168.096C151.486 169.161 150.703 169.694 149.637 169.694C151.204 169.694 152.238 170.133 152.739 171.01C153.303 171.887 153.303 172.765 152.739 173.642C152.238 174.519 151.204 174.958 149.637 174.958C149.888 176.274 149.543 177.371 148.603 178.248C147.726 179.063 146.629 179.564 145.313 179.752C143.997 180.003 142.775 179.877 141.647 179.376C140.582 178.875 139.924 177.966 139.673 176.65C139.36 177.715 138.671 178.373 137.605 178.624C136.54 178.812 135.412 178.718 134.221 178.342C133.093 177.966 132.153 177.402 131.401 176.65C130.712 175.835 130.524 174.895 130.837 173.83C129.772 173.83 128.957 173.423 128.393 172.608C127.892 171.731 127.641 170.728 127.641 169.6C127.641 168.472 127.892 167.469 128.393 166.592C128.957 165.715 129.772 165.276 130.837 165.276C130.023 165.276 129.365 164.712 128.863 163.584C128.362 162.456 128.049 161.109 127.923 159.542C127.861 157.913 127.955 156.377 128.205 154.936C128.519 153.495 128.989 152.429 129.615 151.74C128.487 151.928 127.328 151.521 126.137 150.518C124.947 149.453 124.163 148.293 123.787 147.04C122.847 147.917 121.751 148.262 120.497 148.074C120.811 148.763 120.685 149.421 120.121 150.048C119.557 150.675 118.711 150.863 117.583 150.612C118.398 151.051 118.993 151.959 119.369 153.338C119.745 154.654 119.871 156.095 119.745 157.662C119.683 159.229 119.369 160.607 118.805 161.798C118.304 162.926 117.583 163.49 116.643 163.49C117.521 163.49 118.179 163.929 118.617 164.806C119.056 165.621 119.275 166.592 119.275 167.72C119.275 168.848 119.056 169.851 118.617 170.728C118.179 171.605 117.521 172.044 116.643 172.044C117.771 171.981 118.523 172.389 118.899 173.266C119.275 174.081 119.307 174.927 118.993 175.804C118.68 176.681 117.959 177.151 116.831 177.214C116.769 178.405 116.111 179.251 114.857 179.752C113.604 180.316 112.163 180.535 110.533 180.41C108.904 180.347 107.463 180.003 106.209 179.376C105.019 178.749 104.455 177.841 104.517 176.65C104.517 177.966 104.173 178.937 103.483 179.564C102.857 180.253 102.105 180.598 101.227 180.598C100.413 180.661 99.6608 180.41 98.9714 179.846C98.2821 179.282 97.8748 178.405 97.7494 177.214ZM162.287 170.07C161.284 170.07 160.47 169.631 159.843 168.754C159.216 167.877 158.809 166.811 158.621 165.558C158.433 164.242 158.433 162.926 158.621 161.61C158.809 160.294 159.216 159.197 159.843 158.32C160.47 157.443 161.284 157.004 162.287 157.004C160.971 157.004 160 156.534 159.373 155.594C158.746 154.654 158.433 153.557 158.433 152.304C158.433 151.051 158.746 149.954 159.373 149.014C160 148.074 160.971 147.604 162.287 147.604C161.034 147.604 160.094 147.04 159.467 145.912C158.84 144.784 158.527 143.499 158.527 142.058C158.527 140.554 158.84 139.238 159.467 138.11C160.094 136.982 161.034 136.418 162.287 136.418C160.971 136.418 160.062 136.105 159.561 135.478C159.122 134.851 159.122 134.225 159.561 133.598C160.062 132.971 160.971 132.658 162.287 132.658C162.287 131.718 162.757 130.997 163.697 130.496C164.7 129.995 165.859 129.744 167.175 129.744C168.491 129.744 169.65 129.963 170.653 130.402C171.656 130.841 172.157 131.53 172.157 132.47C172.47 131.342 173.003 130.559 173.755 130.12C174.57 129.619 175.416 129.462 176.293 129.65C177.17 129.775 177.891 130.183 178.455 130.872C179.082 131.499 179.332 132.345 179.207 133.41C179.458 132.658 180.084 132.094 181.087 131.718C182.152 131.342 183.28 131.185 184.471 131.248C185.724 131.248 186.79 131.467 187.667 131.906C188.607 132.345 189.108 133.003 189.171 133.88C188.983 132.501 189.453 131.405 190.581 130.59C191.772 129.775 193.15 129.274 194.717 129.086C196.346 128.835 197.819 128.992 199.135 129.556C200.451 130.057 201.203 130.966 201.391 132.282C202.582 132.345 203.428 132.971 203.929 134.162C204.493 135.353 204.712 136.731 204.587 138.298C204.524 139.802 204.18 141.149 203.553 142.34C202.926 143.468 202.018 144.001 200.827 143.938C201.83 144.815 202.237 145.693 202.049 146.57C201.861 147.447 201.328 148.043 200.451 148.356C199.636 148.669 198.728 148.387 197.725 147.51C197.725 148.45 197.286 149.202 196.409 149.766C195.532 150.33 194.435 150.706 193.119 150.894C191.866 151.019 190.644 150.957 189.453 150.706C188.262 150.455 187.354 149.985 186.727 149.296C186.915 150.236 186.633 151.051 185.881 151.74C185.192 152.367 184.408 152.586 183.531 152.398C184.095 153.401 184.346 154.717 184.283 156.346C184.22 157.913 183.844 159.323 183.155 160.576C182.528 161.767 181.651 162.331 180.523 162.268C181.588 162.268 182.403 162.644 182.967 163.396C183.531 164.148 183.813 165.025 183.813 166.028C183.813 166.968 183.531 167.814 182.967 168.566C182.403 169.318 181.588 169.694 180.523 169.694C181.463 170.007 182.058 170.603 182.309 171.48C182.622 172.295 182.622 173.172 182.309 174.112C182.058 174.989 181.588 175.71 180.899 176.274C180.21 176.838 179.395 176.963 178.455 176.65C178.455 177.841 177.922 178.718 176.857 179.282C175.792 179.909 174.538 180.222 173.097 180.222C171.656 180.222 170.371 179.909 169.243 179.282C168.178 178.718 167.645 177.841 167.645 176.65C167.645 177.841 167.394 178.687 166.893 179.188C166.392 179.752 165.765 179.846 165.013 179.47C164.324 179.094 163.697 178.154 163.133 176.65C162.632 175.146 162.35 172.953 162.287 170.07ZM225.885 176.838C225.572 177.778 224.977 178.405 224.099 178.718C223.285 178.969 222.407 178.937 221.467 178.624C220.59 178.311 219.869 177.809 219.305 177.12C218.804 176.368 218.71 175.522 219.023 174.582C218.459 175.083 217.707 175.115 216.767 174.676C215.827 174.237 214.856 173.548 213.853 172.608C212.913 171.668 212.067 170.634 211.315 169.506C210.626 168.315 210.156 167.219 209.905 166.216C209.717 165.213 209.905 164.493 210.469 164.054C208.777 164.305 207.555 164.054 206.803 163.302C206.114 162.487 205.989 161.61 206.427 160.67C206.866 159.667 207.931 159.041 209.623 158.79C208.683 158.79 207.963 158.445 207.461 157.756C207.023 157.067 206.772 156.283 206.709 155.406C206.709 154.466 206.929 153.651 207.367 152.962C207.869 152.21 208.589 151.834 209.529 151.834C208.527 151.646 207.837 151.082 207.461 150.142C207.148 149.202 207.085 148.199 207.273 147.134C207.524 146.006 207.963 145.066 208.589 144.314C209.279 143.562 210.125 143.28 211.127 143.468C210.062 142.779 209.467 141.964 209.341 141.024C209.216 140.084 209.373 139.269 209.811 138.58C210.313 137.828 211.002 137.358 211.879 137.17C212.819 136.919 213.822 137.139 214.887 137.828C214.323 137.013 214.167 136.23 214.417 135.478C214.668 134.663 215.138 134.037 215.827 133.598C216.517 133.097 217.269 132.877 218.083 132.94C218.898 133.003 219.587 133.441 220.151 134.256C219.713 132.94 219.744 131.969 220.245 131.342C220.747 130.653 221.373 130.402 222.125 130.59C222.94 130.778 223.598 131.53 224.099 132.846C223.911 131.843 224.068 131.06 224.569 130.496C225.071 129.932 225.697 129.587 226.449 129.462C227.264 129.274 228.016 129.368 228.705 129.744C229.395 130.12 229.833 130.778 230.021 131.718C230.021 130.778 230.46 130.089 231.337 129.65C232.277 129.149 233.343 128.898 234.533 128.898C235.724 128.898 236.758 129.149 237.635 129.65C238.575 130.089 239.045 130.778 239.045 131.718C239.296 130.402 239.891 129.493 240.831 128.992C241.834 128.491 242.868 128.365 243.933 128.616C244.999 128.804 245.845 129.337 246.471 130.214C247.161 131.029 247.38 132.125 247.129 133.504C247.568 132.627 248.195 132.157 249.009 132.094C249.887 132.031 250.701 132.219 251.453 132.658C252.268 133.034 252.832 133.598 253.145 134.35C253.521 135.102 253.459 135.917 252.957 136.794C253.96 136.105 254.963 135.979 255.965 136.418C256.968 136.794 257.783 137.452 258.409 138.392C259.099 139.332 259.475 140.366 259.537 141.494C259.6 142.559 259.13 143.405 258.127 144.032C259.193 143.969 260.07 144.345 260.759 145.16C261.511 145.975 262.044 147.04 262.357 148.356C262.733 149.609 262.89 150.925 262.827 152.304C262.765 153.62 262.451 154.748 261.887 155.688C261.386 156.628 260.603 157.161 259.537 157.286C260.853 157.537 261.731 158.195 262.169 159.26C262.608 160.263 262.702 161.391 262.451 162.644C262.263 163.835 261.731 164.837 260.853 165.652C260.039 166.467 259.005 166.749 257.751 166.498C258.691 167.125 259.193 167.877 259.255 168.754C259.381 169.569 259.193 170.321 258.691 171.01C258.19 171.699 257.532 172.169 256.717 172.42C255.903 172.608 255.025 172.389 254.085 171.762C254.649 172.639 254.806 173.485 254.555 174.3C254.305 175.052 253.803 175.647 253.051 176.086C252.362 176.525 251.579 176.713 250.701 176.65C249.887 176.587 249.229 176.117 248.727 175.24C249.103 176.431 248.915 177.371 248.163 178.06C247.411 178.749 246.534 179.031 245.531 178.906C244.591 178.718 243.933 177.997 243.557 176.744C243.808 178.248 243.526 179.282 242.711 179.846C241.897 180.473 240.988 180.598 239.985 180.222C239.045 179.846 238.481 178.937 238.293 177.496C238.419 180.191 237.479 181.538 235.473 181.538C233.468 181.538 230.272 179.971 225.885 176.838ZM240.737 162.08C240.048 162.017 239.547 161.516 239.233 160.576C238.983 159.636 238.857 158.539 238.857 157.286C238.92 155.97 239.108 154.811 239.421 153.808C239.735 152.805 240.205 152.21 240.831 152.022C240.205 152.022 239.578 151.583 238.951 150.706C238.387 149.829 237.917 148.826 237.541 147.698C237.228 146.507 237.103 145.473 237.165 144.596C236.601 145.097 235.912 145.285 235.097 145.16C234.283 145.035 233.656 144.627 233.217 143.938C233.155 144.439 232.967 144.753 232.653 144.878C232.34 145.003 231.995 144.941 231.619 144.69C231.807 145.567 231.745 146.601 231.431 147.792C231.181 148.92 230.773 149.923 230.209 150.8C229.645 151.677 229.019 152.116 228.329 152.116C229.081 152.304 229.551 152.837 229.739 153.714C229.99 154.591 229.959 155.469 229.645 156.346C229.332 157.161 228.768 157.568 227.953 157.568C228.643 157.443 229.238 157.819 229.739 158.696C230.303 159.511 230.679 160.482 230.867 161.61C231.118 162.738 231.149 163.709 230.961 164.524C231.839 164.023 233.155 163.741 234.909 163.678C236.664 163.615 238.607 163.083 240.737 162.08ZM271.062 177.214C270.059 177.151 269.307 176.744 268.806 175.992C268.305 175.24 268.054 174.363 268.054 173.36C268.117 172.357 268.399 171.511 268.9 170.822C269.464 170.07 270.247 169.694 271.25 169.694C270.059 169.694 269.151 169.13 268.524 168.002C267.897 166.811 267.584 165.464 267.584 163.96C267.584 162.393 267.897 161.046 268.524 159.918C269.151 158.727 270.059 158.132 271.25 158.132C270.122 158.132 269.276 157.537 268.712 156.346C268.211 155.093 267.96 153.683 267.96 152.116C267.96 150.549 268.211 149.171 268.712 147.98C269.276 146.727 270.122 146.1 271.25 146.1C269.934 146.1 268.931 145.724 268.242 144.972C267.615 144.22 267.302 143.374 267.302 142.434C267.302 141.431 267.615 140.554 268.242 139.802C268.931 139.05 269.934 138.674 271.25 138.674C270.31 138.486 269.652 138.047 269.276 137.358C268.9 136.669 268.775 135.917 268.9 135.102C269.025 134.287 269.37 133.629 269.934 133.128C270.498 132.564 271.25 132.345 272.19 132.47C272.19 131.405 272.66 130.559 273.6 129.932C274.54 129.305 275.731 128.898 277.172 128.71C278.613 128.459 280.023 128.459 281.402 128.71C282.843 128.898 284.034 129.305 284.974 129.932C285.914 130.559 286.384 131.405 286.384 132.47C287.136 131.655 287.982 131.405 288.922 131.718C289.925 131.969 290.739 132.47 291.366 133.222C291.993 132.219 292.964 131.655 294.28 131.53C295.596 131.342 296.661 131.969 297.476 133.41C297.288 132.345 297.601 131.467 298.416 130.778C299.293 130.026 300.359 129.525 301.612 129.274C302.865 129.023 304.025 129.086 305.09 129.462C306.155 129.775 306.782 130.465 306.97 131.53C307.409 130.778 308.129 130.402 309.132 130.402C310.197 130.339 311.325 130.559 312.516 131.06C313.769 131.561 314.929 132.188 315.994 132.94C317.059 133.692 317.843 134.507 318.344 135.384C318.908 136.261 318.971 137.076 318.532 137.828C319.911 137.201 321.007 137.139 321.822 137.64C322.637 138.141 322.981 138.893 322.856 139.896C322.793 140.836 322.073 141.619 320.694 142.246C321.822 142.121 322.731 142.497 323.42 143.374C324.109 144.251 324.517 145.317 324.642 146.57C324.83 147.761 324.705 148.889 324.266 149.954C323.827 150.957 323.044 151.521 321.916 151.646C323.107 151.646 323.984 152.304 324.548 153.62C325.175 154.873 325.488 156.346 325.488 158.038C325.488 159.73 325.175 161.234 324.548 162.55C323.984 163.803 323.107 164.43 321.916 164.43C323.232 164.43 324.078 164.869 324.454 165.746C324.893 166.623 324.893 167.501 324.454 168.378C324.078 169.255 323.232 169.694 321.916 169.694C323.044 169.819 323.827 170.289 324.266 171.104C324.767 171.856 324.955 172.702 324.83 173.642C324.705 174.519 324.297 175.271 323.608 175.898C322.981 176.525 322.104 176.775 320.976 176.65C320.976 177.653 320.475 178.436 319.472 179C318.532 179.501 317.404 179.752 316.088 179.752C314.835 179.752 313.707 179.501 312.704 179C311.764 178.436 311.294 177.653 311.294 176.65C311.294 177.778 310.887 178.624 310.072 179.188C309.257 179.815 308.286 180.128 307.158 180.128C306.093 180.191 305.153 179.94 304.338 179.376C303.523 178.875 303.085 178.029 303.022 176.838C302.27 176.838 301.706 176.211 301.33 174.958C301.017 173.705 300.891 172.263 300.954 170.634C301.079 169.005 301.361 167.595 301.8 166.404C302.239 165.151 302.834 164.524 303.586 164.524C302.583 164.524 301.8 164.148 301.236 163.396C300.672 162.581 300.359 161.641 300.296 160.576C300.233 159.511 300.39 158.508 300.766 157.568C301.205 156.628 301.863 156.033 302.74 155.782C301.925 155.719 301.142 155.281 300.39 154.466C299.638 153.589 298.949 152.555 298.322 151.364C297.758 150.111 297.413 148.889 297.288 147.698C296.536 148.325 295.627 148.763 294.562 149.014C293.559 149.265 292.651 149.265 291.836 149.014C292.149 149.766 292.243 150.612 292.118 151.552C291.993 152.492 291.711 153.307 291.272 153.996C290.833 154.685 290.238 154.999 289.486 154.936C290.614 154.936 291.335 155.249 291.648 155.876C292.024 156.44 292.024 157.035 291.648 157.662C291.335 158.289 290.614 158.602 289.486 158.602C290.426 158.602 291.147 159.197 291.648 160.388C292.149 161.579 292.4 162.957 292.4 164.524C292.4 166.091 292.149 167.501 291.648 168.754C291.147 169.945 290.426 170.54 289.486 170.54C290.426 171.104 290.927 171.856 290.99 172.796C291.053 173.673 290.833 174.519 290.332 175.334C289.831 176.149 289.141 176.744 288.264 177.12C287.387 177.433 286.478 177.277 285.538 176.65C285.538 177.59 285.068 178.342 284.128 178.906C283.188 179.407 281.997 179.752 280.556 179.94C279.177 180.191 277.767 180.222 276.326 180.034C274.885 179.909 273.663 179.595 272.66 179.094C271.657 178.655 271.125 178.029 271.062 177.214ZM335.06 116.866C333.744 116.553 332.835 115.989 332.334 115.174C331.832 114.359 331.676 113.576 331.864 112.824C332.114 112.009 332.647 111.383 333.462 110.944C334.276 110.505 335.373 110.474 336.752 110.85C336.752 109.91 337.19 109.189 338.068 108.688C338.945 108.124 340.042 107.748 341.358 107.56C342.674 107.372 343.99 107.372 345.306 107.56C346.684 107.748 347.812 108.124 348.69 108.688C349.567 109.189 350.006 109.91 350.006 110.85C351.322 110.662 352.356 110.944 353.108 111.696C353.86 112.385 354.33 113.294 354.518 114.422C354.706 115.487 354.518 116.49 353.954 117.43C353.452 118.37 352.575 118.934 351.322 119.122C351.635 119.874 351.416 120.626 350.664 121.378C349.974 122.067 349.034 122.663 347.844 123.164C346.716 123.603 345.619 123.822 344.554 123.822C343.551 123.759 342.924 123.352 342.674 122.6C342.674 123.603 342.298 124.323 341.546 124.762C340.794 125.201 339.916 125.263 338.914 124.95C337.911 124.574 337.034 123.759 336.282 122.506C335.53 121.19 335.122 119.31 335.06 116.866ZM334.59 176.462C333.587 176.462 332.804 175.992 332.24 175.052C331.676 174.112 331.268 172.953 331.018 171.574C330.83 170.195 330.83 168.817 331.018 167.438C331.268 166.059 331.676 164.931 332.24 164.054C332.804 163.114 333.587 162.644 334.59 162.644C333.336 162.644 332.396 162.143 331.77 161.14C331.143 160.075 330.83 158.884 330.83 157.568C330.83 156.252 331.143 155.093 331.77 154.09C332.396 153.025 333.336 152.492 334.59 152.492C333.524 152.492 332.678 152.022 332.052 151.082C331.425 150.142 330.986 148.983 330.736 147.604C330.548 146.225 330.548 144.847 330.736 143.468C330.986 142.089 331.425 140.961 332.052 140.084C332.678 139.144 333.524 138.674 334.59 138.674C333.462 138.674 332.616 138.361 332.052 137.734C331.55 137.045 331.268 136.293 331.206 135.478C331.206 134.601 331.488 133.849 332.052 133.222C332.616 132.595 333.462 132.282 334.59 132.282C334.59 131.154 334.966 130.339 335.718 129.838C336.532 129.274 337.441 129.023 338.444 129.086C339.509 129.086 340.418 129.368 341.17 129.932C341.922 130.496 342.298 131.342 342.298 132.47C342.298 131.53 342.642 130.841 343.332 130.402C344.021 129.963 344.836 129.744 345.776 129.744C346.716 129.744 347.53 129.963 348.22 130.402C348.972 130.841 349.348 131.53 349.348 132.47C350.288 131.718 351.102 131.499 351.792 131.812C352.544 132.125 352.951 132.658 353.014 133.41C353.139 134.162 352.732 134.914 351.792 135.666C352.92 135.666 353.734 136.199 354.236 137.264C354.8 138.329 355.082 139.551 355.082 140.93C355.082 142.309 354.8 143.531 354.236 144.596C353.734 145.599 352.92 146.1 351.792 146.1C352.794 146.1 353.546 146.633 354.048 147.698C354.549 148.763 354.8 149.985 354.8 151.364C354.8 152.743 354.549 153.965 354.048 155.03C353.546 156.095 352.794 156.628 351.792 156.628C352.544 156.628 353.139 157.129 353.578 158.132C354.079 159.072 354.392 160.294 354.518 161.798C354.706 163.239 354.706 164.681 354.518 166.122C354.392 167.563 354.079 168.785 353.578 169.788C353.139 170.728 352.544 171.198 351.792 171.198C353.17 171.449 354.016 172.075 354.33 173.078C354.643 174.018 354.486 174.927 353.86 175.804C353.233 176.619 352.23 176.901 350.852 176.65C350.852 178.217 350.538 179.251 349.912 179.752C349.285 180.316 348.658 180.316 348.032 179.752C347.405 179.251 347.092 178.217 347.092 176.65C347.092 177.966 346.465 178.969 345.212 179.658C344.021 180.347 342.58 180.661 340.888 180.598C339.258 180.598 337.817 180.253 336.564 179.564C335.31 178.875 334.652 177.841 334.59 176.462ZM396.183 193.194C395.18 193.194 394.428 192.755 393.927 191.878C393.425 191.063 393.175 190.092 393.175 188.964C393.175 187.836 393.425 186.833 393.927 185.956C394.428 185.079 395.18 184.64 396.183 184.64C394.741 184.64 393.707 184.264 393.081 183.512C392.454 182.823 392.235 182.102 392.423 181.35C391.42 181.225 390.511 180.755 389.697 179.94C388.882 179.188 388.537 178.248 388.663 177.12C388.099 177.872 387.19 178.467 385.937 178.906C384.683 179.345 383.336 179.564 381.895 179.564C380.516 179.627 379.294 179.439 378.229 179C377.226 178.624 376.662 177.966 376.537 177.026C376.035 178.154 375.346 178.843 374.469 179.094C373.654 179.407 372.871 179.376 372.119 179C371.367 178.687 370.803 178.123 370.427 177.308C370.113 176.493 370.207 175.522 370.709 174.394C369.831 175.083 368.954 175.334 368.077 175.146C367.199 174.958 366.447 174.519 365.821 173.83C365.257 173.078 364.943 172.263 364.881 171.386C364.881 170.446 365.319 169.6 366.197 168.848C365.257 169.099 364.442 168.848 363.753 168.096C363.063 167.281 362.562 166.279 362.249 165.088C361.935 163.835 361.873 162.707 362.061 161.704C362.311 160.639 362.907 159.981 363.847 159.73C362.28 159.793 361.215 159.448 360.651 158.696C360.149 157.944 360.149 157.192 360.651 156.44C361.152 155.625 362.155 155.187 363.659 155.124C362.907 154.999 362.374 154.403 362.061 153.338C361.747 152.273 361.622 151.019 361.685 149.578C361.747 148.074 361.967 146.601 362.343 145.16C362.781 143.719 363.283 142.559 363.847 141.682C364.473 140.742 365.194 140.335 366.009 140.46C364.505 139.52 363.659 138.643 363.471 137.828C363.283 136.951 363.596 136.418 364.411 136.23C365.288 135.979 366.479 136.293 367.983 137.17C367.168 136.23 366.823 135.321 366.949 134.444C367.074 133.567 367.45 132.877 368.077 132.376C368.703 131.812 369.455 131.593 370.333 131.718C371.273 131.781 372.119 132.282 372.871 133.222C372.683 131.906 373.09 130.841 374.093 130.026C375.095 129.149 376.286 128.616 377.665 128.428C379.106 128.177 380.422 128.334 381.613 128.898C382.803 129.399 383.493 130.308 383.681 131.624C384.057 130.308 384.652 129.525 385.467 129.274C386.344 128.961 387.065 129.149 387.629 129.838C388.255 130.465 388.412 131.436 388.099 132.752C388.412 131.875 389.007 131.342 389.885 131.154C390.825 130.966 391.796 131.029 392.799 131.342C393.864 131.655 394.71 132.157 395.337 132.846C395.65 132.094 396.214 131.624 397.029 131.436C397.906 131.248 398.783 131.593 399.661 132.47C399.661 131.342 400.131 130.496 401.071 129.932C402.011 129.305 403.076 128.992 404.267 128.992C405.52 128.992 406.617 129.305 407.557 129.932C408.497 130.496 408.967 131.342 408.967 132.47C409.405 131.467 410.126 130.997 411.129 131.06C412.131 131.123 412.977 131.53 413.667 132.282C414.356 133.034 414.45 133.911 413.949 134.914C415.265 134.914 416.142 135.353 416.581 136.23C417.019 137.107 417.019 137.985 416.581 138.862C416.142 139.739 415.265 140.178 413.949 140.178C414.889 140.178 415.609 140.554 416.111 141.306C416.612 141.995 416.863 142.81 416.863 143.75C416.863 144.69 416.612 145.536 416.111 146.288C415.609 146.977 414.889 147.322 413.949 147.322C415.014 147.322 415.829 147.698 416.393 148.45C416.957 149.202 417.239 150.079 417.239 151.082C417.239 152.085 416.957 152.962 416.393 153.714C415.829 154.466 415.014 154.842 413.949 154.842C415.139 154.842 416.017 155.343 416.581 156.346C417.207 157.286 417.521 158.414 417.521 159.73C417.521 161.046 417.207 162.205 416.581 163.208C416.017 164.148 415.139 164.618 413.949 164.618C414.951 164.618 415.703 165.057 416.205 165.934C416.706 166.749 416.957 167.689 416.957 168.754C416.957 169.819 416.706 170.791 416.205 171.668C415.703 172.483 414.951 172.89 413.949 172.89C414.951 172.89 415.703 173.423 416.205 174.488C416.706 175.553 416.957 176.775 416.957 178.154C416.957 179.533 416.706 180.755 416.205 181.82C415.703 182.885 414.951 183.418 413.949 183.418C415.202 183.418 416.111 183.857 416.675 184.734C417.301 185.611 417.615 186.614 417.615 187.742C417.615 188.87 417.301 189.873 416.675 190.75C416.111 191.627 415.202 192.066 413.949 192.066C416.079 192.567 417.051 193.225 416.863 194.04C416.675 194.855 415.515 195.011 413.385 194.51C413.385 195.325 412.915 195.951 411.975 196.39C411.097 196.891 410.001 197.236 408.685 197.424C407.369 197.612 406.053 197.612 404.737 197.424C403.421 197.236 402.293 196.891 401.353 196.39C400.475 195.951 400.037 195.325 400.037 194.51C400.037 195.763 399.723 196.578 399.097 196.954C398.533 197.393 397.906 197.299 397.217 196.672C396.59 196.108 396.245 194.949 396.183 193.194ZM394.867 162.926C394.303 162.801 393.958 162.268 393.833 161.328C393.707 160.325 393.739 159.229 393.927 158.038C394.177 156.785 394.491 155.719 394.867 154.842C395.305 153.965 395.775 153.557 396.277 153.62C395.65 153.683 395.18 153.432 394.867 152.868C394.553 152.304 394.397 151.677 394.397 150.988C394.459 150.236 394.71 149.672 395.149 149.296C394.334 149.359 393.425 148.951 392.423 148.074C391.42 147.197 390.762 146.288 390.449 145.348C390.073 146.163 389.446 146.664 388.569 146.852C387.754 146.977 387.033 146.727 386.407 146.1C386.344 146.852 386.031 147.51 385.467 148.074C384.965 148.575 384.37 148.763 383.681 148.638C384.433 149.139 384.652 149.766 384.339 150.518C384.025 151.27 383.367 151.521 382.365 151.27C382.991 151.395 383.493 151.897 383.869 152.774C384.245 153.589 384.464 154.56 384.527 155.688C384.652 156.753 384.621 157.787 384.433 158.79C384.245 159.73 383.9 160.388 383.399 160.764C384.025 160.639 384.527 160.827 384.903 161.328C385.341 161.829 385.498 162.331 385.373 162.832C386.25 162.268 387.535 162.111 389.227 162.362C390.981 162.613 392.861 162.801 394.867 162.926ZM436.051 176.274C435.362 177.089 434.516 177.402 433.513 177.214C432.51 177.026 431.57 176.556 430.693 175.804C429.878 175.052 429.314 174.206 429.001 173.266C428.688 172.263 428.876 171.386 429.565 170.634C428.437 171.073 427.466 171.135 426.651 170.822C425.899 170.446 425.366 169.913 425.053 169.224C424.74 168.472 424.74 167.689 425.053 166.874C425.429 166.059 426.181 165.433 427.309 164.994C425.993 165.119 424.959 164.837 424.207 164.148C423.518 163.459 423.11 162.613 422.985 161.61C422.922 160.607 423.173 159.699 423.737 158.884C424.364 158.069 425.335 157.599 426.651 157.474C425.398 157.474 424.458 157.004 423.831 156.064C423.204 155.124 422.891 154.027 422.891 152.774C422.891 151.521 423.204 150.424 423.831 149.484C424.458 148.544 425.398 148.074 426.651 148.074C425.21 148.074 424.238 147.761 423.737 147.134C423.298 146.507 423.298 145.881 423.737 145.254C424.238 144.627 425.21 144.314 426.651 144.314C425.084 144.314 424.019 143.907 423.455 143.092C422.954 142.277 422.954 141.463 423.455 140.648C424.019 139.833 425.084 139.426 426.651 139.426C425.272 139.113 424.332 138.517 423.831 137.64C423.33 136.763 423.173 135.885 423.361 135.008C423.612 134.068 424.144 133.347 424.959 132.846C425.836 132.282 426.964 132.157 428.343 132.47C428.343 131.342 428.782 130.465 429.659 129.838C430.599 129.149 431.727 128.71 433.043 128.522C434.422 128.271 435.769 128.271 437.085 128.522C438.401 128.71 439.498 129.149 440.375 129.838C441.315 130.465 441.785 131.342 441.785 132.47C443.038 131.718 444.135 131.624 445.075 132.188C446.015 132.752 446.548 133.598 446.673 134.726C446.798 135.791 446.234 136.7 444.981 137.452C445.796 137.452 446.391 137.828 446.767 138.58C447.206 139.332 447.425 140.209 447.425 141.212C447.425 142.215 447.206 143.092 446.767 143.844C446.391 144.596 445.796 144.972 444.981 144.972C445.921 144.972 446.642 145.379 447.143 146.194C447.644 147.009 447.895 147.949 447.895 149.014C447.895 150.079 447.644 151.051 447.143 151.928C446.642 152.743 445.921 153.15 444.981 153.15C445.921 153.087 446.642 153.401 447.143 154.09C447.707 154.779 447.989 155.625 447.989 156.628C448.052 157.568 447.864 158.383 447.425 159.072C448.553 158.947 449.806 159.166 451.185 159.73C452.626 160.294 453.754 161.015 454.569 161.892C454.82 161.203 455.196 160.607 455.697 160.106C456.261 159.542 456.856 159.197 457.483 159.072C456.543 158.571 456.198 157.819 456.449 156.816C456.762 155.813 457.64 155.312 459.081 155.312C458.204 155.312 457.514 154.748 457.013 153.62C456.574 152.492 456.355 151.207 456.355 149.766C456.355 148.262 456.574 146.977 457.013 145.912C457.514 144.784 458.204 144.22 459.081 144.22C457.828 144.22 456.982 143.875 456.543 143.186C456.167 142.497 456.167 141.807 456.543 141.118C456.982 140.429 457.828 140.084 459.081 140.084C458.141 139.959 457.452 139.489 457.013 138.674C456.637 137.859 456.512 136.951 456.637 135.948C456.762 134.945 457.107 134.099 457.671 133.41C458.235 132.658 459.018 132.345 460.021 132.47C460.021 131.091 460.366 130.057 461.055 129.368C461.807 128.679 462.622 128.334 463.499 128.334C464.439 128.334 465.254 128.679 465.943 129.368C466.695 130.057 467.071 131.091 467.071 132.47C467.071 131.029 467.478 130.089 468.293 129.65C469.108 129.149 469.922 129.149 470.737 129.65C471.552 130.089 471.959 131.029 471.959 132.47C472.46 131.53 473.118 130.997 473.933 130.872C474.748 130.747 475.5 130.903 476.189 131.342C476.941 131.718 477.442 132.313 477.693 133.128C478.006 133.88 477.881 134.726 477.317 135.666C478.57 135.666 479.51 135.979 480.137 136.606C480.764 137.233 481.077 137.985 481.077 138.862C481.077 139.677 480.764 140.429 480.137 141.118C479.51 141.745 478.57 142.058 477.317 142.058C478.884 142.058 479.918 142.497 480.419 143.374C480.92 144.189 480.92 145.035 480.419 145.912C479.918 146.789 478.884 147.228 477.317 147.228C478.32 147.228 479.072 147.792 479.573 148.92C480.074 149.985 480.325 151.239 480.325 152.68C480.325 154.121 480.074 155.406 479.573 156.534C479.072 157.599 478.32 158.132 477.317 158.132C478.57 158.132 479.479 158.602 480.043 159.542C480.67 160.419 480.983 161.453 480.983 162.644C480.983 163.835 480.67 164.869 480.043 165.746C479.479 166.623 478.57 167.062 477.317 167.062C478.069 167.25 478.539 167.877 478.727 168.942C478.915 169.945 478.852 171.104 478.539 172.42C478.288 173.673 477.85 174.739 477.223 175.616C476.659 176.493 476.001 176.838 475.249 176.65C475.249 178.279 474.81 179.345 473.933 179.846C473.056 180.41 472.178 180.41 471.301 179.846C470.424 179.345 469.985 178.279 469.985 176.65C469.985 178.217 469.515 179.251 468.575 179.752C467.698 180.316 466.789 180.347 465.849 179.846C464.909 179.345 464.439 178.279 464.439 176.65C464 177.966 463.436 178.812 462.747 179.188C462.058 179.564 461.431 179.533 460.867 179.094C460.366 178.655 460.146 177.903 460.209 176.838C459.708 177.841 458.768 178.499 457.389 178.812C456.073 179.125 454.82 179.063 453.629 178.624C452.438 178.123 451.843 177.245 451.843 175.992C451.906 176.869 451.467 177.621 450.527 178.248C449.587 178.812 448.302 179.157 446.673 179.282C445.106 179.407 443.383 179.251 441.503 178.812C439.623 178.373 437.806 177.527 436.051 176.274ZM508.133 177.308C507.757 178.624 507.068 179.47 506.065 179.846C505.062 180.285 503.997 180.347 502.869 180.034C501.804 179.783 500.926 179.219 500.237 178.342C499.548 177.465 499.391 176.368 499.767 175.052C499.078 175.992 498.263 176.525 497.323 176.65C496.383 176.713 495.506 176.462 494.691 175.898C493.939 175.334 493.438 174.613 493.187 173.736C492.999 172.796 493.281 171.825 494.033 170.822C493.093 171.261 492.153 171.073 491.213 170.258C490.273 169.381 489.49 168.253 488.863 166.874C488.236 165.433 487.923 164.085 487.923 162.832C487.923 161.579 488.393 160.733 489.333 160.294C488.205 160.294 487.359 159.761 486.795 158.696C486.231 157.631 485.949 156.377 485.949 154.936C485.949 153.495 486.231 152.241 486.795 151.176C487.359 150.111 488.174 149.578 489.239 149.578C487.547 149.077 486.544 148.325 486.231 147.322C485.918 146.319 486.137 145.473 486.889 144.784C487.704 144.095 488.957 144.001 490.649 144.502C490.085 144.001 489.897 143.28 490.085 142.34C490.336 141.337 490.837 140.303 491.589 139.238C492.341 138.173 493.187 137.233 494.127 136.418C495.067 135.541 495.976 134.914 496.853 134.538C497.793 134.162 498.545 134.225 499.109 134.726C498.796 133.661 499.078 132.721 499.955 131.906C500.895 131.091 502.054 130.496 503.433 130.12C504.812 129.681 506.096 129.587 507.287 129.838C508.478 130.026 509.23 130.653 509.543 131.718C509.606 130.527 510.295 129.713 511.611 129.274C512.99 128.773 514.494 128.585 516.123 128.71C517.815 128.835 519.288 129.243 520.541 129.932C521.794 130.621 522.358 131.561 522.233 132.752C522.734 131.561 523.424 130.935 524.301 130.872C525.241 130.747 525.993 131.029 526.557 131.718C527.184 132.407 527.278 133.347 526.839 134.538C527.528 133.849 528.437 133.755 529.565 134.256C530.756 134.695 531.884 135.447 532.949 136.512C534.077 137.577 534.86 138.705 535.299 139.896C535.8 141.087 535.706 142.027 535.017 142.716C535.957 142.528 536.803 142.841 537.555 143.656C538.37 144.471 538.996 145.536 539.435 146.852C539.936 148.168 540.218 149.547 540.281 150.988C540.344 152.367 540.187 153.589 539.811 154.654C539.435 155.719 538.746 156.346 537.743 156.534C539.56 157.349 540.375 157.975 540.187 158.414C539.999 158.79 538.996 158.571 537.179 157.756C537.179 158.571 536.646 159.197 535.581 159.636C534.578 160.012 533.419 160.2 532.103 160.2C530.787 160.2 529.596 160.012 528.531 159.636C527.528 159.197 527.027 158.571 527.027 157.756C527.027 158.821 526.557 159.636 525.617 160.2C524.677 160.701 523.58 160.983 522.327 161.046C521.136 161.046 520.071 160.795 519.131 160.294C518.191 159.73 517.721 158.947 517.721 157.944C517.784 159.009 517.251 159.887 516.123 160.576C515.058 161.203 513.836 161.579 512.457 161.704C513.084 162.456 513.585 163.271 513.961 164.148C514.4 164.963 514.682 165.715 514.807 166.404C515.434 165.715 516.374 165.119 517.627 164.618C518.88 164.117 520.165 163.803 521.481 163.678C522.797 163.553 523.956 163.647 524.959 163.96C526.024 164.211 526.651 164.775 526.839 165.652C526.839 164.587 527.246 163.772 528.061 163.208C528.938 162.644 529.941 162.362 531.069 162.362C532.197 162.362 533.168 162.644 533.983 163.208C534.86 163.772 535.299 164.587 535.299 165.652C536.552 165.903 537.304 166.435 537.555 167.25C537.806 168.002 537.649 168.691 537.085 169.318C536.521 169.882 535.644 170.039 534.453 169.788C535.017 170.603 535.111 171.449 534.735 172.326C534.359 173.141 533.732 173.861 532.855 174.488C532.04 175.052 531.163 175.365 530.223 175.428C529.346 175.491 528.625 175.146 528.061 174.394C528.437 175.585 528.249 176.619 527.497 177.496C526.808 178.373 525.868 179 524.677 179.376C523.486 179.752 522.327 179.752 521.199 179.376C520.134 179.063 519.413 178.311 519.037 177.12C519.162 178.812 518.692 179.971 517.627 180.598C516.624 181.225 515.246 181.256 513.491 180.692C511.799 180.191 510.013 179.063 508.133 177.308ZM511.987 150.706C511.987 149.453 512.332 148.763 513.021 148.638C513.71 148.45 514.18 148.826 514.431 149.766C514.619 149.202 514.995 148.669 515.559 148.168C516.123 147.667 516.718 147.322 517.345 147.134C516.593 146.57 515.966 145.755 515.465 144.69C514.964 143.625 514.807 142.685 514.995 141.87C514.431 142.183 513.742 142.371 512.927 142.434C512.175 142.497 511.517 142.403 510.953 142.152C511.141 142.841 511.11 143.656 510.859 144.596C510.608 145.536 510.201 146.382 509.637 147.134C509.136 147.886 508.54 148.293 507.851 148.356C508.666 148.544 509.261 148.983 509.637 149.672C510.076 150.361 510.859 150.706 511.987 150.706ZM561.717 176.838C561.341 178.53 560.777 179.564 560.025 179.94C559.273 180.316 558.647 180.159 558.145 179.47C557.707 178.781 557.675 177.621 558.051 175.992C557.613 176.932 556.892 177.465 555.889 177.59C554.887 177.653 553.884 177.465 552.881 177.026C551.941 176.525 551.189 175.867 550.625 175.052C550.124 174.175 550.093 173.235 550.531 172.232C549.529 171.919 548.871 171.386 548.557 170.634C548.307 169.819 548.307 169.036 548.557 168.284C548.871 167.469 549.372 166.843 550.061 166.404C550.813 165.965 551.691 165.934 552.693 166.31C552.693 165.37 553.069 164.681 553.821 164.242C554.573 163.741 555.419 163.49 556.359 163.49C557.362 163.49 558.239 163.741 558.991 164.242C559.743 164.681 560.119 165.37 560.119 166.31C560.307 165.37 560.965 164.712 562.093 164.336C563.221 163.96 564.537 163.835 566.041 163.96C567.545 164.085 568.893 164.43 570.083 164.994C570.146 164.555 570.334 164.211 570.647 163.96C570.334 163.396 570.334 162.707 570.647 161.892C569.958 162.456 568.955 162.738 567.639 162.738C566.323 162.738 564.976 162.519 563.597 162.08C562.281 161.641 561.216 161.046 560.401 160.294C559.587 159.542 559.273 158.727 559.461 157.85C559.023 159.103 558.396 159.824 557.581 160.012C556.767 160.2 556.109 159.981 555.607 159.354C555.106 158.665 555.075 157.662 555.513 156.346C554.824 156.847 554.009 156.847 553.069 156.346C552.192 155.782 551.283 154.967 550.343 153.902C549.466 152.837 548.714 151.677 548.087 150.424C547.461 149.171 547.085 148.011 546.959 146.946C546.834 145.881 547.116 145.129 547.805 144.69C547.116 144.314 546.803 143.625 546.865 142.622C546.991 141.619 547.335 140.585 547.899 139.52C548.526 138.455 549.215 137.609 549.967 136.982C550.782 136.355 551.534 136.23 552.223 136.606C551.597 135.541 551.534 134.601 552.035 133.786C552.599 132.971 553.351 132.533 554.291 132.47C555.231 132.345 556.046 132.815 556.735 133.88C556.547 132.877 556.829 132 557.581 131.248C558.396 130.496 559.43 129.901 560.683 129.462C561.937 129.023 563.221 128.804 564.537 128.804C565.916 128.741 567.107 128.929 568.109 129.368C569.112 129.807 569.707 130.527 569.895 131.53C570.021 130.339 570.491 129.525 571.305 129.086C572.183 128.585 573.091 128.397 574.031 128.522C575.034 128.647 575.88 129.055 576.569 129.744C577.259 130.433 577.509 131.342 577.321 132.47C577.697 131.279 578.23 130.59 578.919 130.402C579.671 130.151 580.298 130.308 580.799 130.872C581.301 131.436 581.363 132.313 580.987 133.504C581.489 132.564 582.272 132.094 583.337 132.094C584.403 132.094 585.437 132.376 586.439 132.94C587.505 133.504 588.288 134.256 588.789 135.196C589.353 136.136 589.353 137.076 588.789 138.016C590.231 138.455 591.045 139.144 591.233 140.084C591.484 141.024 591.233 141.839 590.481 142.528C589.792 143.155 588.758 143.249 587.379 142.81C587.379 143.938 586.941 144.784 586.063 145.348C585.186 145.849 584.183 146.1 583.055 146.1C581.927 146.1 580.925 145.849 580.047 145.348C579.233 144.784 578.825 143.938 578.825 142.81C578.637 143.562 578.073 144.063 577.133 144.314C576.256 144.565 575.222 144.627 574.031 144.502C572.841 144.314 571.713 144.001 570.647 143.562C570.71 144.377 570.428 145.129 569.801 145.818C571.18 146.131 572.465 146.695 573.655 147.51C574.846 148.325 575.285 149.139 574.971 149.954C575.159 149.077 575.692 148.481 576.569 148.168C577.447 147.855 578.387 147.823 579.389 148.074C580.392 148.262 581.238 148.669 581.927 149.296C582.617 149.923 582.867 150.675 582.679 151.552C583.118 151.051 583.807 150.957 584.747 151.27C585.75 151.521 586.784 152.053 587.849 152.868C588.977 153.62 590.011 154.497 590.951 155.5C591.891 156.44 592.581 157.38 593.019 158.32C593.458 159.197 593.458 159.887 593.019 160.388C594.335 160.325 595.307 160.607 595.933 161.234C596.56 161.861 596.873 162.581 596.873 163.396C596.936 164.211 596.654 164.931 596.027 165.558C595.463 166.185 594.555 166.529 593.301 166.592C594.053 167.156 594.335 167.939 594.147 168.942C594.022 169.945 593.583 170.916 592.831 171.856C592.142 172.796 591.327 173.485 590.387 173.924C589.51 174.3 588.664 174.206 587.849 173.642C588.351 174.77 588.382 175.741 587.943 176.556C587.505 177.371 586.847 177.966 585.969 178.342C585.092 178.718 584.183 178.749 583.243 178.436C582.366 178.123 581.708 177.433 581.269 176.368C581.395 177.496 580.831 178.405 579.577 179.094C578.387 179.783 576.789 180.191 574.783 180.316C572.778 180.441 570.616 180.222 568.297 179.658C566.041 179.094 563.848 178.154 561.717 176.838ZM96.111 284.36C94.983 285.237 94.043 285.582 93.291 285.394C92.539 285.206 92.1317 284.736 92.069 283.984C92.069 283.169 92.633 282.323 93.761 281.446C92.445 281.885 91.3484 281.885 90.471 281.446C89.5937 280.945 88.967 280.224 88.591 279.284C88.2777 278.344 88.309 277.404 88.685 276.464C89.061 275.524 89.8757 274.835 91.129 274.396C89.7504 274.459 88.685 274.051 87.933 273.174C87.181 272.297 86.7424 271.231 86.617 269.978C86.5544 268.725 86.8364 267.597 87.463 266.594C88.0897 265.591 89.0924 265.027 90.471 264.902C89.155 264.777 88.215 264.15 87.651 263.022C87.1497 261.894 86.9617 260.641 87.087 259.262C87.275 257.883 87.745 256.724 88.497 255.784C89.3117 254.781 90.377 254.374 91.693 254.562C90.565 253.935 89.8757 253.121 89.625 252.118C89.437 251.115 89.5624 250.175 90.001 249.298C90.5024 248.421 91.1917 247.825 92.069 247.512C93.009 247.136 94.0744 247.261 95.265 247.888C94.6384 246.885 94.5444 245.914 94.983 244.974C95.4844 243.971 96.2364 243.157 97.239 242.53C98.2417 241.903 99.2757 241.621 100.341 241.684C101.406 241.684 102.252 242.185 102.879 243.188C102.942 242.373 103.443 241.778 104.383 241.402C105.323 241.026 106.451 240.838 107.767 240.838C109.146 240.775 110.493 240.901 111.809 241.214C113.125 241.465 114.222 241.872 115.099 242.436C115.976 242.937 116.384 243.595 116.321 244.41C116.446 243.345 116.728 242.53 117.167 241.966C117.668 241.339 118.232 240.963 118.859 240.838C118.922 239.773 119.298 238.833 119.987 238.018C120.676 237.203 121.554 236.89 122.619 237.078C121.428 236.953 120.52 236.389 119.893 235.386C119.329 234.321 119.047 233.13 119.047 231.814C119.11 230.498 119.454 229.37 120.081 228.43C120.77 227.427 121.742 226.926 122.995 226.926C122.18 225.359 121.804 224.231 121.867 223.542C121.992 222.79 122.4 222.571 123.089 222.884C123.778 223.135 124.562 224.043 125.439 225.61C125.439 224.545 125.909 223.761 126.849 223.26C127.852 222.759 128.98 222.508 130.233 222.508C131.486 222.508 132.583 222.759 133.523 223.26C134.526 223.761 135.027 224.545 135.027 225.61C135.654 225.046 136.406 224.952 137.283 225.328C138.223 225.704 139.069 226.331 139.821 227.208C140.573 228.085 141.074 228.994 141.325 229.934C141.576 230.874 141.388 231.626 140.761 232.19C141.826 232.19 142.61 232.817 143.111 234.07C143.612 235.261 143.863 236.639 143.863 238.206C143.863 239.773 143.612 241.183 143.111 242.436C142.61 243.627 141.826 244.222 140.761 244.222C141.701 244.222 142.422 244.723 142.923 245.726C143.487 246.666 143.863 247.857 144.051 249.298C144.239 250.677 144.239 252.087 144.051 253.528C143.863 254.907 143.487 256.097 142.923 257.1C142.422 258.04 141.701 258.51 140.761 258.51C142.202 258.51 143.142 258.823 143.581 259.45C144.082 260.077 144.082 260.703 143.581 261.33C143.142 261.957 142.202 262.27 140.761 262.27C142.578 262.27 143.769 262.74 144.333 263.68C144.96 264.62 144.96 265.56 144.333 266.5C143.769 267.44 142.578 267.91 140.761 267.91C141.513 267.91 142.108 268.349 142.547 269.226C143.048 270.103 143.362 271.2 143.487 272.516C143.675 273.832 143.675 275.148 143.487 276.464C143.362 277.78 143.048 278.877 142.547 279.754C142.108 280.631 141.513 281.07 140.761 281.07C142.14 281.258 143.111 281.728 143.675 282.48C144.302 283.232 144.552 284.047 144.427 284.924C144.302 285.801 143.832 286.522 143.017 287.086C142.265 287.65 141.2 287.838 139.821 287.65C139.821 288.653 139.445 289.405 138.693 289.906C138.004 290.345 137.189 290.564 136.249 290.564C135.372 290.564 134.557 290.345 133.805 289.906C133.116 289.405 132.771 288.653 132.771 287.65C132.646 288.778 132.113 289.561 131.173 290C130.296 290.439 129.293 290.595 128.165 290.47C127.1 290.345 126.16 289.969 125.345 289.342C124.593 288.715 124.28 287.869 124.405 286.804C124.405 288.057 124.029 288.997 123.277 289.624C122.588 290.251 121.773 290.595 120.833 290.658C119.893 290.721 119.016 290.501 118.201 290C117.449 289.499 116.948 288.715 116.697 287.65C116.634 289.029 115.726 289.969 113.971 290.47C112.279 290.971 109.898 290.783 106.827 289.906C103.756 289.029 100.184 287.18 96.111 284.36ZM123.089 265.372C122.212 265.372 121.679 264.996 121.491 264.244C121.303 263.492 121.522 262.928 122.149 262.552C121.522 262.552 120.833 262.239 120.081 261.612C119.329 260.923 118.671 260.139 118.107 259.262C117.606 258.385 117.292 257.539 117.167 256.724C116.603 257.288 115.82 257.664 114.817 257.852C113.814 258.04 112.968 257.946 112.279 257.57C112.467 258.385 112.404 259.356 112.091 260.484C111.84 261.612 111.433 262.583 110.869 263.398C110.305 264.213 109.741 264.526 109.177 264.338C109.678 264.463 110.054 264.933 110.305 265.748C110.556 266.563 110.65 267.409 110.587 268.286C110.524 269.163 110.274 269.821 109.835 270.26C110.65 270.197 111.684 270.573 112.937 271.388C114.253 272.14 115.506 272.955 116.697 273.832C117.888 274.709 118.734 275.305 119.235 275.618C118.608 275.117 118.389 274.333 118.577 273.268C118.828 272.203 119.298 271.2 119.987 270.26C120.676 269.257 121.397 268.725 122.149 268.662C121.146 268.349 120.739 267.722 120.927 266.782C121.115 265.779 121.836 265.309 123.089 265.372ZM171.606 288.308C171.23 289.624 170.54 290.47 169.538 290.846C168.535 291.285 167.47 291.347 166.342 291.034C165.276 290.783 164.399 290.219 163.71 289.342C163.02 288.465 162.864 287.368 163.24 286.052C162.55 286.992 161.736 287.525 160.796 287.65C159.856 287.713 158.978 287.462 158.164 286.898C157.412 286.334 156.91 285.613 156.66 284.736C156.472 283.796 156.754 282.825 157.506 281.822C156.566 282.261 155.626 282.073 154.686 281.258C153.746 280.381 152.962 279.253 152.336 277.874C151.709 276.433 151.396 275.085 151.396 273.832C151.396 272.579 151.866 271.733 152.806 271.294C151.678 271.294 150.832 270.761 150.268 269.696C149.704 268.631 149.422 267.377 149.422 265.936C149.422 264.495 149.704 263.241 150.268 262.176C150.832 261.111 151.646 260.578 152.712 260.578C151.02 260.077 150.017 259.325 149.704 258.322C149.39 257.319 149.61 256.473 150.362 255.784C151.176 255.095 152.43 255.001 154.122 255.502C153.558 255.001 153.37 254.28 153.558 253.34C153.808 252.337 154.31 251.303 155.062 250.238C155.814 249.173 156.66 248.233 157.6 247.418C158.54 246.541 159.448 245.914 160.326 245.538C161.266 245.162 162.018 245.225 162.582 245.726C162.268 244.661 162.55 243.721 163.428 242.906C164.368 242.091 165.527 241.496 166.906 241.12C168.284 240.681 169.569 240.587 170.76 240.838C171.95 241.026 172.702 241.653 173.016 242.718C173.078 241.527 173.768 240.713 175.084 240.274C176.462 239.773 177.966 239.585 179.596 239.71C181.288 239.835 182.76 240.243 184.014 240.932C185.267 241.621 185.831 242.561 185.706 243.752C186.207 242.561 186.896 241.935 187.774 241.872C188.714 241.747 189.466 242.029 190.03 242.718C190.656 243.407 190.75 244.347 190.312 245.538C191.001 244.849 191.91 244.755 193.038 245.256C194.228 245.695 195.356 246.447 196.422 247.512C197.55 248.577 198.333 249.705 198.772 250.896C199.273 252.087 199.179 253.027 198.49 253.716C199.43 253.528 200.276 253.841 201.028 254.656C201.842 255.471 202.469 256.536 202.908 257.852C203.409 259.168 203.691 260.547 203.754 261.988C203.816 263.367 203.66 264.589 203.284 265.654C202.908 266.719 202.218 267.346 201.216 267.534C203.033 268.349 203.848 268.975 203.66 269.414C203.472 269.79 202.469 269.571 200.652 268.756C200.652 269.571 200.119 270.197 199.054 270.636C198.051 271.012 196.892 271.2 195.576 271.2C194.26 271.2 193.069 271.012 192.004 270.636C191.001 270.197 190.5 269.571 190.5 268.756C190.5 269.821 190.03 270.636 189.09 271.2C188.15 271.701 187.053 271.983 185.8 272.046C184.609 272.046 183.544 271.795 182.604 271.294C181.664 270.73 181.194 269.947 181.194 268.944C181.256 270.009 180.724 270.887 179.596 271.576C178.53 272.203 177.308 272.579 175.93 272.704C176.556 273.456 177.058 274.271 177.434 275.148C177.872 275.963 178.154 276.715 178.28 277.404C178.906 276.715 179.846 276.119 181.1 275.618C182.353 275.117 183.638 274.803 184.954 274.678C186.27 274.553 187.429 274.647 188.432 274.96C189.497 275.211 190.124 275.775 190.312 276.652C190.312 275.587 190.719 274.772 191.534 274.208C192.411 273.644 193.414 273.362 194.542 273.362C195.67 273.362 196.641 273.644 197.456 274.208C198.333 274.772 198.772 275.587 198.772 276.652C200.025 276.903 200.777 277.435 201.028 278.25C201.278 279.002 201.122 279.691 200.558 280.318C199.994 280.882 199.116 281.039 197.926 280.788C198.49 281.603 198.584 282.449 198.208 283.326C197.832 284.141 197.205 284.861 196.328 285.488C195.513 286.052 194.636 286.365 193.696 286.428C192.818 286.491 192.098 286.146 191.534 285.394C191.91 286.585 191.722 287.619 190.97 288.496C190.28 289.373 189.34 290 188.15 290.376C186.959 290.752 185.8 290.752 184.672 290.376C183.606 290.063 182.886 289.311 182.51 288.12C182.635 289.812 182.165 290.971 181.1 291.598C180.097 292.225 178.718 292.256 176.964 291.692C175.272 291.191 173.486 290.063 171.606 288.308ZM175.46 261.706C175.46 260.453 175.804 259.763 176.494 259.638C177.183 259.45 177.653 259.826 177.904 260.766C178.092 260.202 178.468 259.669 179.032 259.168C179.596 258.667 180.191 258.322 180.818 258.134C180.066 257.57 179.439 256.755 178.938 255.69C178.436 254.625 178.28 253.685 178.468 252.87C177.904 253.183 177.214 253.371 176.4 253.434C175.648 253.497 174.99 253.403 174.426 253.152C174.614 253.841 174.582 254.656 174.332 255.596C174.081 256.536 173.674 257.382 173.11 258.134C172.608 258.886 172.013 259.293 171.324 259.356C172.138 259.544 172.734 259.983 173.11 260.672C173.548 261.361 174.332 261.706 175.46 261.706ZM280.938 286.428C280.248 287.431 279.308 287.932 278.118 287.932C276.927 287.869 275.768 287.462 274.64 286.71C273.574 285.958 272.791 285.049 272.29 283.984C271.851 282.856 271.976 281.759 272.666 280.694C271.976 280.819 271.318 280.443 270.692 279.566C270.128 278.689 269.626 277.561 269.188 276.182C268.812 274.803 268.561 273.393 268.436 271.952C268.31 270.448 268.342 269.195 268.53 268.192C268.78 267.127 269.25 266.531 269.94 266.406C268.874 266.719 267.903 266.594 267.026 266.03C266.211 265.403 265.522 264.526 264.958 263.398C264.456 262.27 264.143 261.111 264.018 259.92C263.955 258.729 264.174 257.695 264.676 256.818C263.548 257.006 262.388 256.755 261.198 256.066C260.007 255.314 259.6 254.343 259.976 253.152C258.722 253.152 257.782 252.745 257.156 251.93C256.529 251.053 256.216 250.081 256.216 249.016C256.153 247.888 256.435 246.917 257.062 246.102C257.751 245.225 258.722 244.786 259.976 244.786C259.662 242.906 260.101 241.559 261.292 240.744C262.545 239.929 263.798 239.773 265.052 240.274C264.926 239.773 265.052 239.365 265.428 239.052C265.866 238.676 266.43 238.519 267.12 238.582C266.493 237.893 266.18 237.078 266.18 236.138C266.18 235.198 266.493 234.383 267.12 233.694C267.746 232.942 268.686 232.566 269.94 232.566C269.125 231.877 268.78 230.999 268.906 229.934C269.094 228.869 269.564 227.897 270.316 227.02C271.068 226.08 271.945 225.453 272.948 225.14C273.95 224.764 274.89 224.921 275.768 225.61C275.768 224.607 276.3 223.855 277.366 223.354C278.494 222.853 279.747 222.602 281.126 222.602C282.567 222.602 283.82 222.853 284.886 223.354C286.014 223.855 286.578 224.607 286.578 225.61C288.708 225.422 289.805 225.735 289.868 226.55C289.93 227.365 288.896 227.866 286.766 228.054C288.082 228.054 289.022 228.555 289.586 229.558C290.212 230.561 290.494 231.72 290.432 233.036C290.432 234.352 290.087 235.417 289.398 236.232C290.714 236.232 291.936 236.827 293.064 238.018C294.192 239.209 294.63 240.462 294.38 241.778C295.069 241.026 295.978 240.681 297.106 240.744C298.296 240.807 299.299 241.183 300.114 241.872C300.991 242.561 301.336 243.533 301.148 244.786C302.526 244.786 303.56 245.256 304.25 246.196C304.939 247.136 305.284 248.264 305.284 249.58C305.284 250.833 304.939 251.93 304.25 252.87C303.56 253.81 302.526 254.28 301.148 254.28C301.21 255.345 300.709 256.223 299.644 256.912C298.641 257.539 297.388 257.946 295.884 258.134C294.38 258.259 293.064 258.134 291.936 257.758C292.249 258.761 292.28 259.889 292.03 261.142C291.779 262.333 291.309 263.398 290.62 264.338C289.993 265.278 289.178 265.873 288.176 266.124C289.116 266.249 289.774 266.594 290.15 267.158C290.526 267.659 290.651 268.223 290.526 268.85C291.716 268.725 292.938 268.944 294.192 269.508C295.445 270.072 296.416 270.855 297.106 271.858C297.858 272.798 298.014 273.832 297.576 274.96C298.39 274.333 299.205 274.145 300.02 274.396C300.834 274.647 301.524 275.148 302.088 275.9C302.652 276.589 302.934 277.373 302.934 278.25C302.996 279.065 302.652 279.785 301.9 280.412C302.902 280.349 303.654 280.725 304.156 281.54C304.657 282.292 304.908 283.169 304.908 284.172C304.908 285.112 304.657 285.958 304.156 286.71C303.654 287.462 302.902 287.838 301.9 287.838C301.9 289.718 300.834 290.909 298.704 291.41C296.636 291.974 294.004 291.849 290.808 291.034C287.612 290.219 284.322 288.684 280.938 286.428ZM313.671 227.866C312.355 227.553 311.446 226.989 310.945 226.174C310.444 225.359 310.287 224.576 310.475 223.824C310.726 223.009 311.258 222.383 312.073 221.944C312.888 221.505 313.984 221.474 315.363 221.85C315.363 220.91 315.802 220.189 316.679 219.688C317.556 219.124 318.653 218.748 319.969 218.56C321.285 218.372 322.601 218.372 323.917 218.56C325.296 218.748 326.424 219.124 327.301 219.688C328.178 220.189 328.617 220.91 328.617 221.85C329.933 221.662 330.967 221.944 331.719 222.696C332.471 223.385 332.941 224.294 333.129 225.422C333.317 226.487 333.129 227.49 332.565 228.43C332.064 229.37 331.186 229.934 329.933 230.122C330.246 230.874 330.027 231.626 329.275 232.378C328.586 233.067 327.646 233.663 326.455 234.164C325.327 234.603 324.23 234.822 323.165 234.822C322.162 234.759 321.536 234.352 321.285 233.6C321.285 234.603 320.909 235.323 320.157 235.762C319.405 236.201 318.528 236.263 317.525 235.95C316.522 235.574 315.645 234.759 314.893 233.506C314.141 232.19 313.734 230.31 313.671 227.866ZM313.201 287.462C312.198 287.462 311.415 286.992 310.851 286.052C310.287 285.112 309.88 283.953 309.629 282.574C309.441 281.195 309.441 279.817 309.629 278.438C309.88 277.059 310.287 275.931 310.851 275.054C311.415 274.114 312.198 273.644 313.201 273.644C311.948 273.644 311.008 273.143 310.381 272.14C309.754 271.075 309.441 269.884 309.441 268.568C309.441 267.252 309.754 266.093 310.381 265.09C311.008 264.025 311.948 263.492 313.201 263.492C312.136 263.492 311.29 263.022 310.663 262.082C310.036 261.142 309.598 259.983 309.347 258.604C309.159 257.225 309.159 255.847 309.347 254.468C309.598 253.089 310.036 251.961 310.663 251.084C311.29 250.144 312.136 249.674 313.201 249.674C312.073 249.674 311.227 249.361 310.663 248.734C310.162 248.045 309.88 247.293 309.817 246.478C309.817 245.601 310.099 244.849 310.663 244.222C311.227 243.595 312.073 243.282 313.201 243.282C313.201 242.154 313.577 241.339 314.329 240.838C315.144 240.274 316.052 240.023 317.055 240.086C318.12 240.086 319.029 240.368 319.781 240.932C320.533 241.496 320.909 242.342 320.909 243.47C320.909 242.53 321.254 241.841 321.943 241.402C322.632 240.963 323.447 240.744 324.387 240.744C325.327 240.744 326.142 240.963 326.831 241.402C327.583 241.841 327.959 242.53 327.959 243.47C328.899 242.718 329.714 242.499 330.403 242.812C331.155 243.125 331.562 243.658 331.625 244.41C331.75 245.162 331.343 245.914 330.403 246.666C331.531 246.666 332.346 247.199 332.847 248.264C333.411 249.329 333.693 250.551 333.693 251.93C333.693 253.309 333.411 254.531 332.847 255.596C332.346 256.599 331.531 257.1 330.403 257.1C331.406 257.1 332.158 257.633 332.659 258.698C333.16 259.763 333.411 260.985 333.411 262.364C333.411 263.743 333.16 264.965 332.659 266.03C332.158 267.095 331.406 267.628 330.403 267.628C331.155 267.628 331.75 268.129 332.189 269.132C332.69 270.072 333.004 271.294 333.129 272.798C333.317 274.239 333.317 275.681 333.129 277.122C333.004 278.563 332.69 279.785 332.189 280.788C331.75 281.728 331.155 282.198 330.403 282.198C331.782 282.449 332.628 283.075 332.941 284.078C333.254 285.018 333.098 285.927 332.471 286.804C331.844 287.619 330.842 287.901 329.463 287.65C329.463 289.217 329.15 290.251 328.523 290.752C327.896 291.316 327.27 291.316 326.643 290.752C326.016 290.251 325.703 289.217 325.703 287.65C325.703 288.966 325.076 289.969 323.823 290.658C322.632 291.347 321.191 291.661 319.499 291.598C317.87 291.598 316.428 291.253 315.175 290.564C313.922 289.875 313.264 288.841 313.201 287.462ZM348.268 275.524C347.265 275.524 346.513 274.897 346.012 273.644C345.573 272.328 345.354 270.824 345.354 269.132C345.354 267.44 345.573 265.967 346.012 264.714C346.513 263.398 347.265 262.74 348.268 262.74C347.14 262.74 346.262 262.176 345.636 261.048C345.072 259.92 344.789 258.635 344.789 257.194C344.789 255.69 345.072 254.374 345.636 253.246C346.262 252.118 347.14 251.554 348.268 251.554C347.516 251.115 347.171 250.395 347.234 249.392C347.359 248.327 347.704 247.261 348.268 246.196C348.894 245.131 349.615 244.316 350.43 243.752C351.307 243.125 352.122 243.031 352.874 243.47C352.874 242.279 353.218 241.402 353.908 240.838C354.66 240.211 355.474 239.898 356.352 239.898C357.292 239.898 358.106 240.211 358.796 240.838C359.548 241.402 359.924 242.279 359.924 243.47C359.924 241.903 360.206 240.869 360.77 240.368C361.396 239.867 362.023 239.867 362.65 240.368C363.276 240.869 363.59 241.903 363.59 243.47C364.53 242.843 365.344 242.687 366.034 243C366.786 243.251 367.287 243.689 367.538 244.316C368.54 243.439 369.794 242.718 371.298 242.154C372.864 241.59 374.306 241.308 375.622 241.308C376.938 241.308 377.784 241.778 378.16 242.718C378.41 241.903 379.037 241.402 380.04 241.214C381.105 241.026 382.296 241.057 383.612 241.308C384.928 241.559 386.212 241.966 387.466 242.53C388.719 243.094 389.69 243.752 390.38 244.504C391.132 245.256 391.382 246.039 391.132 246.854C392.385 246.227 393.419 246.008 394.234 246.196C395.111 246.008 395.894 246.29 396.584 247.042C396.145 246.227 396.082 245.507 396.396 244.88C396.709 244.253 397.242 243.94 397.994 243.94C398.746 243.94 399.529 244.379 400.344 245.256C400.03 244.379 400.156 243.564 400.72 242.812C401.346 242.06 402.161 241.496 403.164 241.12C404.229 240.744 405.232 240.65 406.172 240.838C407.112 241.026 407.738 241.59 408.052 242.53C408.365 241.715 409.117 241.277 410.308 241.214C411.498 241.089 412.783 241.277 414.162 241.778C415.603 242.279 416.794 242.937 417.734 243.752C418.674 244.504 418.987 245.287 418.674 246.102C419.739 245.663 420.773 245.82 421.776 246.572C422.778 247.324 423.593 248.389 424.22 249.768C424.846 251.084 425.128 252.369 425.066 253.622C425.003 254.875 424.439 255.753 423.374 256.254C424.439 256.191 425.316 256.63 426.006 257.57C426.695 258.447 427.165 259.575 427.416 260.954C427.666 262.27 427.698 263.617 427.51 264.996C427.322 266.312 426.914 267.44 426.288 268.38C425.661 269.32 424.815 269.79 423.75 269.79C425.567 269.79 426.758 270.229 427.322 271.106C427.948 271.983 427.948 272.861 427.322 273.738C426.758 274.615 425.567 275.054 423.75 275.054C424.752 275.054 425.504 275.43 426.006 276.182C426.507 276.871 426.758 277.686 426.758 278.626C426.758 279.566 426.507 280.412 426.006 281.164C425.504 281.853 424.752 282.198 423.75 282.198C425.128 282.637 425.912 283.389 426.1 284.454C426.288 285.519 426.006 286.428 425.254 287.18C424.502 287.932 423.436 288.089 422.058 287.65C422.058 288.903 421.588 289.843 420.648 290.47C419.708 291.097 418.611 291.41 417.358 291.41C416.104 291.41 415.008 291.097 414.068 290.47C413.128 289.843 412.658 288.903 412.658 287.65C412.595 288.903 412.062 289.718 411.06 290.094C410.12 290.533 409.148 290.501 408.146 290C407.206 289.561 406.767 288.715 406.83 287.462C405.827 287.462 405.075 286.961 404.574 285.958C404.135 284.893 403.916 283.702 403.916 282.386C403.916 281.07 404.135 279.911 404.574 278.908C405.075 277.843 405.827 277.31 406.83 277.31C405.89 277.31 405.169 276.683 404.668 275.43C404.166 274.114 403.884 272.579 403.822 270.824C403.759 269.007 403.916 267.346 404.292 265.842C404.668 264.275 405.263 263.304 406.078 262.928C405.326 262.991 404.605 262.677 403.916 261.988C403.289 261.236 402.819 260.39 402.506 259.45C401.754 260.327 400.845 261.111 399.78 261.8C398.714 262.489 397.743 262.897 396.866 263.022C397.68 263.649 397.9 264.463 397.524 265.466C397.148 266.406 396.208 266.876 394.704 266.876C395.644 266.876 396.333 267.377 396.772 268.38C397.21 269.383 397.43 270.573 397.43 271.952C397.43 273.268 397.21 274.427 396.772 275.43C396.333 276.433 395.644 276.934 394.704 276.934C395.706 276.934 396.427 277.435 396.866 278.438C397.367 279.378 397.618 280.475 397.618 281.728C397.618 282.919 397.367 283.984 396.866 284.924C396.427 285.864 395.706 286.334 394.704 286.334C394.892 287.525 394.672 288.465 394.046 289.154C393.419 289.843 392.604 290.282 391.602 290.47C390.662 290.658 389.753 290.501 388.876 290C388.061 289.561 387.56 288.778 387.372 287.65C387.372 288.966 386.902 289.969 385.962 290.658C385.084 291.347 384.05 291.692 382.86 291.692C381.669 291.692 380.604 291.347 379.664 290.658C378.786 289.969 378.348 288.966 378.348 287.65C376.28 288.339 375.152 288.402 374.964 287.838C374.776 287.274 375.716 286.647 377.784 285.958C376.468 285.958 375.59 285.613 375.152 284.924C374.713 284.235 374.713 283.545 375.152 282.856C375.59 282.167 376.468 281.822 377.784 281.822C377.094 281.822 376.53 281.352 376.092 280.412C375.716 279.472 375.465 278.281 375.34 276.84C375.214 275.399 375.214 273.989 375.34 272.61C375.465 271.169 375.716 269.978 376.092 269.038C376.53 268.098 377.094 267.628 377.784 267.628C376.781 267.628 376.06 267.346 375.622 266.782C375.246 266.155 375.152 265.529 375.34 264.902C375.59 264.213 376.123 263.774 376.938 263.586C376.248 263.523 375.559 263.053 374.87 262.176C374.18 261.236 373.679 260.233 373.366 259.168C372.614 260.045 371.642 260.797 370.452 261.424C369.261 261.988 368.164 262.145 367.162 261.894C367.663 262.709 368.008 263.837 368.196 265.278C368.384 266.657 368.415 268.067 368.29 269.508C368.164 270.949 367.851 272.203 367.35 273.268C366.911 274.271 366.316 274.741 365.564 274.678C366.692 274.678 367.412 275.148 367.726 276.088C368.102 277.028 368.102 277.968 367.726 278.908C367.412 279.848 366.692 280.318 365.564 280.318C366.504 280.631 367.099 281.227 367.35 282.104C367.6 282.919 367.6 283.827 367.35 284.83C367.099 285.77 366.629 286.553 365.94 287.18C365.25 287.744 364.436 287.901 363.496 287.65C363.496 288.966 363.12 289.937 362.368 290.564C361.616 291.191 360.738 291.504 359.736 291.504C358.733 291.504 357.856 291.191 357.104 290.564C356.352 289.937 355.976 288.966 355.976 287.65C355.976 288.715 355.6 289.467 354.848 289.906C354.096 290.282 353.218 290.125 352.216 289.436C351.213 288.684 350.304 287.211 349.49 285.018C348.738 282.762 348.33 279.597 348.268 275.524ZM451.43 287.838C451.117 288.778 450.522 289.405 449.644 289.718C448.83 289.969 447.952 289.937 447.012 289.624C446.135 289.311 445.414 288.809 444.85 288.12C444.349 287.368 444.255 286.522 444.568 285.582C444.004 286.083 443.252 286.115 442.312 285.676C441.372 285.237 440.401 284.548 439.398 283.608C438.458 282.668 437.612 281.634 436.86 280.506C436.171 279.315 435.701 278.219 435.45 277.216C435.262 276.213 435.45 275.493 436.014 275.054C434.322 275.305 433.1 275.054 432.348 274.302C431.659 273.487 431.534 272.61 431.972 271.67C432.411 270.667 433.476 270.041 435.168 269.79C434.228 269.79 433.508 269.445 433.006 268.756C432.568 268.067 432.317 267.283 432.254 266.406C432.254 265.466 432.474 264.651 432.912 263.962C433.414 263.21 434.134 262.834 435.074 262.834C434.072 262.646 433.382 262.082 433.006 261.142C432.693 260.202 432.63 259.199 432.818 258.134C433.069 257.006 433.508 256.066 434.134 255.314C434.824 254.562 435.67 254.28 436.672 254.468C435.607 253.779 435.012 252.964 434.886 252.024C434.761 251.084 434.918 250.269 435.356 249.58C435.858 248.828 436.547 248.358 437.424 248.17C438.364 247.919 439.367 248.139 440.432 248.828C439.868 248.013 439.712 247.23 439.962 246.478C440.213 245.663 440.683 245.037 441.372 244.598C442.062 244.097 442.814 243.877 443.628 243.94C444.443 244.003 445.132 244.441 445.696 245.256C445.258 243.94 445.289 242.969 445.79 242.342C446.292 241.653 446.918 241.402 447.67 241.59C448.485 241.778 449.143 242.53 449.644 243.846C449.456 242.843 449.613 242.06 450.114 241.496C450.616 240.932 451.242 240.587 451.994 240.462C452.809 240.274 453.561 240.368 454.25 240.744C454.94 241.12 455.378 241.778 455.566 242.718C455.566 241.778 456.005 241.089 456.882 240.65C457.822 240.149 458.888 239.898 460.078 239.898C461.269 239.898 462.303 240.149 463.18 240.65C464.12 241.089 464.59 241.778 464.59 242.718C464.841 241.402 465.436 240.493 466.376 239.992C467.379 239.491 468.413 239.365 469.478 239.616C470.544 239.804 471.39 240.337 472.016 241.214C472.706 242.029 472.925 243.125 472.674 244.504C473.113 243.627 473.74 243.157 474.554 243.094C475.432 243.031 476.246 243.219 476.998 243.658C477.813 244.034 478.377 244.598 478.69 245.35C479.066 246.102 479.004 246.917 478.502 247.794C479.505 247.105 480.508 246.979 481.51 247.418C482.513 247.794 483.328 248.452 483.954 249.392C484.644 250.332 485.02 251.366 485.082 252.494C485.145 253.559 484.675 254.405 483.672 255.032C484.738 254.969 485.615 255.345 486.304 256.16C487.056 256.975 487.589 258.04 487.902 259.356C488.278 260.609 488.435 261.925 488.372 263.304C488.31 264.62 487.996 265.748 487.432 266.688C486.931 267.628 486.148 268.161 485.082 268.286C486.398 268.537 487.276 269.195 487.714 270.26C488.153 271.263 488.247 272.391 487.996 273.644C487.808 274.835 487.276 275.837 486.398 276.652C485.584 277.467 484.55 277.749 483.296 277.498C484.236 278.125 484.738 278.877 484.8 279.754C484.926 280.569 484.738 281.321 484.236 282.01C483.735 282.699 483.077 283.169 482.262 283.42C481.448 283.608 480.57 283.389 479.63 282.762C480.194 283.639 480.351 284.485 480.1 285.3C479.85 286.052 479.348 286.647 478.596 287.086C477.907 287.525 477.124 287.713 476.246 287.65C475.432 287.587 474.774 287.117 474.272 286.24C474.648 287.431 474.46 288.371 473.708 289.06C472.956 289.749 472.079 290.031 471.076 289.906C470.136 289.718 469.478 288.997 469.102 287.744C469.353 289.248 469.071 290.282 468.256 290.846C467.442 291.473 466.533 291.598 465.53 291.222C464.59 290.846 464.026 289.937 463.838 288.496C463.964 291.191 463.024 292.538 461.018 292.538C459.013 292.538 455.817 290.971 451.43 287.838ZM466.282 273.08C465.593 273.017 465.092 272.516 464.778 271.576C464.528 270.636 464.402 269.539 464.402 268.286C464.465 266.97 464.653 265.811 464.966 264.808C465.28 263.805 465.75 263.21 466.376 263.022C465.75 263.022 465.123 262.583 464.496 261.706C463.932 260.829 463.462 259.826 463.086 258.698C462.773 257.507 462.648 256.473 462.71 255.596C462.146 256.097 461.457 256.285 460.642 256.16C459.828 256.035 459.201 255.627 458.762 254.938C458.7 255.439 458.512 255.753 458.198 255.878C457.885 256.003 457.54 255.941 457.164 255.69C457.352 256.567 457.29 257.601 456.976 258.792C456.726 259.92 456.318 260.923 455.754 261.8C455.19 262.677 454.564 263.116 453.874 263.116C454.626 263.304 455.096 263.837 455.284 264.714C455.535 265.591 455.504 266.469 455.19 267.346C454.877 268.161 454.313 268.568 453.498 268.568C454.188 268.443 454.783 268.819 455.284 269.696C455.848 270.511 456.224 271.482 456.412 272.61C456.663 273.738 456.694 274.709 456.506 275.524C457.384 275.023 458.7 274.741 460.454 274.678C462.209 274.615 464.152 274.083 466.282 273.08Z" fill="#E8EDF1"/>
</svg>
