<svg width="983" height="110" viewBox="0 0 983 110" fill="none" xmlns="http://www.w3.org/2000/svg">
<path d="M35.2372 89.2332C21.2458 87.8682 -4.94266 77.4441 7.69344 53.3055C-15.9602 21.47 50.5674 -29.5768 60.3673 29.3251C80.2976 38.085 101.226 51.7534 86.9055 66.4419C87.2538 66.2449 87.618 66.0607 87.9984 65.8901C103.313 62.9212 118.185 24.0251 136.489 61.3141C150.977 90.8302 123.585 95.6342 112.907 87.6262C90.7937 109.365 74.2344 81.6855 83.2942 69.596C81.4114 71.0243 79.1769 72.4595 76.5584 73.8981C93.9472 101.354 72.8061 106.775 55.2647 107.537C47.5927 102.991 32.3069 95.689 35.2372 89.2332Z" fill="white"/>
<path d="M35.2372 89.2332C21.2458 87.8682 -4.94266 77.4441 7.69344 53.3055M13.637 44.1534C11.136 47.424 9.17754 50.4704 7.69344 53.3055M7.69344 53.3055C-16.1058 21.274 51.3898 -30.2059 60.5418 30.4254M76.5584 73.8981C63.7455 50.1029 50.6276 70.0848 45.6703 83.0501C20.9599 90.3718 44.9687 101.436 55.2647 107.537C72.8061 106.775 93.9472 101.354 76.5584 73.8981ZM76.5584 73.8981C109.033 56.0572 82.4258 38.7428 58.6967 28.6011M87.9984 65.8901C70.1368 73.8981 87.9984 112.113 112.907 87.6262C123.585 95.6342 150.977 90.8302 136.489 61.3141C118.185 24.0251 103.313 62.9212 87.9984 65.8901Z" stroke="black" stroke-width="4"/>
<path d="M466.578 35.7537C429.97 36.6689 445.987 50.6257 460.858 48.3377C460.858 58.6335 467.723 54.7284 471.155 51.7695C467.723 59.7775 476.418 66.4127 497.467 56.3455C499.755 56.3455 510.814 64.3535 513.483 56.3455C519.89 37.1263 501.662 34.6096 491.747 35.7537C485.341 8.2976 472.298 24.3136 466.578 35.7537Z" fill="white" stroke="black" stroke-width="4"/>
<path d="M904.258 41.8974C900.597 60.2015 911.885 66.3028 917.986 67.0655C935.524 68.2095 960.764 64.0912 921.42 38.4656C921.42 35.0337 923.248 29.3146 912.266 24.7374C895.12 17.5909 904.265 32.7458 904.258 41.8974Z" fill="white" stroke="black" stroke-width="4"/>
<path d="M969.481 44.1858C942.777 11.3244 932.695 31.9416 928.5 43.0002C931.5 46.0002 940.963 51.4207 941.868 58.3449C960.429 64.5316 982.817 60.2017 980.765 52.6249C977.975 42.3289 971.691 46.9051 969.481 44.1858Z" fill="white" stroke="black" stroke-width="4"/>
</svg>
